<svg xmlns="http://www.w3.org/2000/svg" viewBox="0 0 800 410" role="img" aria-labelledby="root-parasitic-network-title" aria-describedby="root-parasitic-network-desc" font-family="system-ui, sans-serif"><title id="root-parasitic-network-title">Equal total capacitance can produce unequal circuits</title><desc id="root-parasitic-network-desc">Two rectangular device networks put the same 20 femtofarads on different nodes: high impedance versus low impedance. Resistance and terminal assignment determine performance.</desc><text x="24" y="32" font-size="20" text-anchor="start" fill="#20343b">Equal total capacitance can produce unequal circuits</text><text x="30" y="74" font-size="18" text-anchor="start" fill="#20343b">Candidate A</text><rect x="35" y="95" width="120" height="55" fill="#d7efe4" stroke="#20343b" stroke-width="1.5"/><text x="95.0" y="128.5" font-size="16" text-anchor="middle" fill="#20343b">Driver</text><rect x="327" y="95" width="152" height="55" fill="#ffe6ad" stroke="#20343b" stroke-width="1.5"/><text x="403.0" y="128.5" font-size="16" text-anchor="middle" fill="#20343b">Sensitive node</text><rect x="637" y="95" width="125" height="55" fill="#dce8fb" stroke="#20343b" stroke-width="1.5"/><text x="699.5" y="128.5" font-size="16" text-anchor="middle" fill="#20343b">Load</text><line x1="155" y1="122" x2="200" y2="122" stroke="#20343b" stroke-width="2"/><rect x="201" y="103" width="80" height="38" fill="#edf0ed" stroke="#20343b" stroke-width="1.5"/><text x="241.0" y="128.0" font-size="16" text-anchor="middle" fill="#20343b">R</text><line x1="281" y1="122" x2="327" y2="122" stroke="#20343b" stroke-width="2"/><line x1="479" y1="122" x2="637" y2="122" stroke="#20343b" stroke-width="2"/><text x="30" y="224" font-size="18" text-anchor="start" fill="#20343b">Candidate B</text><rect x="35" y="245" width="120" height="55" fill="#d7efe4" stroke="#20343b" stroke-width="1.5"/><text x="95.0" y="278.5" font-size="16" text-anchor="middle" fill="#20343b">Driver</text><rect x="327" y="245" width="152" height="55" fill="#ffe6ad" stroke="#20343b" stroke-width="1.5"/><text x="403.0" y="278.5" font-size="16" text-anchor="middle" fill="#20343b">Sensitive node</text><rect x="637" y="245" width="125" height="55" fill="#dce8fb" stroke="#20343b" stroke-width="1.5"/><text x="699.5" y="278.5" font-size="16" text-anchor="middle" fill="#20343b">Load</text><line x1="155" y1="272" x2="200" y2="272" stroke="#20343b" stroke-width="2"/><rect x="201" y="253" width="80" height="38" fill="#edf0ed" stroke="#20343b" stroke-width="1.5"/><text x="241.0" y="278.0" font-size="16" text-anchor="middle" fill="#20343b">R</text><line x1="281" y1="272" x2="327" y2="272" stroke="#20343b" stroke-width="2"/><line x1="479" y1="272" x2="637" y2="272" stroke="#20343b" stroke-width="2"/><rect x="341" y="166" width="130" height="38" fill="#ffe6ad" stroke="#20343b" stroke-width="1.5"/><text x="406.0" y="191.0" font-size="16" text-anchor="middle" fill="#20343b">C = 20 fF</text><line x1="402" y1="150" x2="402" y2="166" stroke="#20343b" stroke-width="2"/><rect x="38" y="316" width="130" height="38" fill="#ffe6ad" stroke="#20343b" stroke-width="1.5"/><text x="103.0" y="341.0" font-size="16" text-anchor="middle" fill="#20343b">C = 20 fF</text><line x1="99" y1="300" x2="99" y2="316" stroke="#20343b" stroke-width="2"/><text x="500" y="190" font-size="16" text-anchor="start" fill="#20343b">High-Z node loading</text><text x="200" y="342" font-size="16" text-anchor="start" fill="#20343b">Driver-side loading</text><text x="35" y="392" font-size="18" text-anchor="start" fill="#20343b">Keep a terminal network, not only ΣC.</text></svg>
