<svg xmlns="http://www.w3.org/2000/svg" viewBox="18253 5503 46099 60804" width="800" height="800" style="background:#14141a"><g transform="translate(0,71810) scale(1,-1)"><g id="L64" fill="rgba(191,89,216,0.6)" stroke="rgba(255,133,255,1)" stroke-width="60"><polygon points="37905,11720 62905,11720 62905,20180 37905,20180"/><polygon points="25595,20085 29595,20085 29595,39545 25595,39545"/><polygon points="26735,43075 30735,43075 30735,62535 26735,62535"/><polygon points="38305,35225 42305,35225 42305,43685 38305,43685"/><polygon points="31355,23975 36855,23975 36855,36935 31355,36935"/><polygon points="43605,43250 47605,43250 47605,51710 43605,51710"/><polygon points="43605,27550 47605,27550 47605,33510 43605,33510"/><polygon points="48905,36530 52905,36530 52905,42490 48905,42490"/><polygon points="38305,44985 42305,44985 42305,53445 38305,53445"/><polygon points="48905,43790 52905,43790 52905,52250 48905,52250"/><polygon points="19700,19580 23700,19580 23700,40040 19700,40040"/><polygon points="21120,42575 25120,42575 25120,63035 21120,63035"/><polygon points="32420,42370 36420,42370 36420,45230 32420,45230"/></g><g id="L65" fill="rgba(76,224,224,0.6)" stroke="rgba(114,255,255,1)" stroke-width="60"><polygon points="44855,35140 46355,35140 46355,35560 44855,35560"/><polygon points="55715,23600 57215,23600 57215,30000 55715,30000"/><polygon points="50285,23655 51785,23655 51785,30055 50285,30055"/><polygon points="55455,36720 56955,36720 56955,43120 55455,43120"/><polygon points="39530,29295 41030,29295 41030,33795 39530,33795"/><polygon points="44855,37320 46355,37320 46355,41820 44855,41820"/><polygon points="55715,31760 57215,31760 57215,34960 55715,34960"/><polygon points="50155,31900 51655,31900 51655,35100 50155,35100"/><polygon points="46155,12050 54655,12050 54655,20050 46155,20050"/><polygon points="26845,20415 28345,20415 28345,39415 26845,39415"/><polygon points="27985,43405 29485,43405 29485,62405 27985,62405"/><polygon points="39555,35555 41055,35555 41055,43555 39555,43555"/><polygon points="32605,24305 35605,24305 35605,36805 32605,36805"/><polygon points="44855,43580 46355,43580 46355,51580 44855,51580"/><polygon points="44855,27880 46355,27880 46355,33380 44855,33380"/><polygon points="50155,36860 51655,36860 51655,42360 50155,42360"/><polygon points="39555,45315 41055,45315 41055,53315 39555,53315"/><polygon points="50155,44120 51655,44120 51655,52120 50155,52120"/><polygon points="20950,19910 22450,19910 22450,39910 20950,39910"/><polygon points="22370,42905 23870,42905 23870,62905 22370,62905"/><polygon points="33670,42700 35170,42700 35170,45100 33670,45100"/></g><g id="L66" fill="rgba(255,140,56,0.6)" stroke="rgba(255,210,84,1)" stroke-width="60"><polygon points="45105,35010 46105,35010 46105,35690 45105,35690"/><polygon points="45105,34810 46105,34810 46105,35040 45105,35040"/><polygon points="43605,35010 44605,35010 44605,35690 43605,35690"/><polygon points="46605,35010 47605,35010 47605,35690 46605,35690"/><polygon points="55965,23470 56965,23470 56965,30130 55965,30130"/><polygon points="55965,23270 56965,23270 56965,23500 55965,23500"/><polygon points="54465,23470 55465,23470 55465,30130 54465,30130"/><polygon points="57465,23470 58465,23470 58465,30130 57465,30130"/><polygon points="50535,23525 51535,23525 51535,30185 50535,30185"/><polygon points="50535,23325 51535,23325 51535,23555 50535,23555"/><polygon points="49035,23525 50035,23525 50035,30185 49035,30185"/><polygon points="52035,23525 53035,23525 53035,30185 52035,30185"/><polygon points="55705,36590 56705,36590 56705,43250 55705,43250"/><polygon points="55705,36390 56705,36390 56705,36620 55705,36620"/><polygon points="54205,36590 55205,36590 55205,43250 54205,43250"/><polygon points="57205,36590 58205,36590 58205,43250 57205,43250"/><polygon points="39780,29165 40780,29165 40780,33925 39780,33925"/><polygon points="39780,28965 40780,28965 40780,29195 39780,29195"/><polygon points="38280,29165 39280,29165 39280,33925 38280,33925"/><polygon points="41280,29165 42280,29165 42280,33925 41280,33925"/><polygon points="45105,37190 46105,37190 46105,41950 45105,41950"/><polygon points="45105,36990 46105,36990 46105,37220 45105,37220"/><polygon points="43605,37190 44605,37190 44605,41950 43605,41950"/><polygon points="46605,37190 47605,37190 47605,41950 46605,41950"/><polygon points="55965,31630 56965,31630 56965,35090 55965,35090"/><polygon points="55965,31430 56965,31430 56965,31660 55965,31660"/><polygon points="54465,31630 55465,31630 55465,35090 54465,35090"/><polygon points="57465,31630 58465,31630 58465,35090 57465,35090"/><polygon points="50405,31770 51405,31770 51405,35230 50405,35230"/><polygon points="50405,31570 51405,31570 51405,31800 50405,31800"/><polygon points="48905,31770 49905,31770 49905,35230 48905,35230"/><polygon points="51905,31770 52905,31770 52905,35230 51905,35230"/><polygon points="46405,11920 54405,11920 54405,20180 46405,20180"/><polygon points="46405,11720 54405,11720 54405,11950 46405,11950"/><polygon points="37905,11920 45905,11920 45905,20180 37905,20180"/><polygon points="54905,11920 62905,11920 62905,20180 54905,20180"/><polygon points="27095,20285 28095,20285 28095,39545 27095,39545"/><polygon points="27095,20085 28095,20085 28095,20315 27095,20315"/><polygon points="25595,20285 26595,20285 26595,39545 25595,39545"/><polygon points="28595,20285 29595,20285 29595,39545 28595,39545"/><polygon points="28235,43275 29235,43275 29235,62535 28235,62535"/><polygon points="28235,43075 29235,43075 29235,43305 28235,43305"/><polygon points="26735,43275 27735,43275 27735,62535 26735,62535"/><polygon points="29735,43275 30735,43275 30735,62535 29735,62535"/><polygon points="39805,35425 40805,35425 40805,43685 39805,43685"/><polygon points="39805,35225 40805,35225 40805,35455 39805,35455"/><polygon points="38305,35425 39305,35425 39305,43685 38305,43685"/><polygon points="41305,35425 42305,35425 42305,43685 41305,43685"/><polygon points="32855,24175 33855,24175 33855,36935 32855,36935"/><polygon points="32855,23975 33855,23975 33855,24205 32855,24205"/><polygon points="34355,24175 35355,24175 35355,36935 34355,36935"/><polygon points="34355,23975 35355,23975 35355,24205 34355,24205"/><polygon points="31355,24175 32355,24175 32355,36935 31355,36935"/><polygon points="35855,24175 36855,24175 36855,36935 35855,36935"/><polygon points="45105,43450 46105,43450 46105,51710 45105,51710"/><polygon points="45105,43250 46105,43250 46105,43480 45105,43480"/><polygon points="43605,43450 44605,43450 44605,51710 43605,51710"/><polygon points="46605,43450 47605,43450 47605,51710 46605,51710"/><polygon points="45105,27750 46105,27750 46105,33510 45105,33510"/><polygon points="45105,27550 46105,27550 46105,27780 45105,27780"/><polygon points="43605,27750 44605,27750 44605,33510 43605,33510"/><polygon points="46605,27750 47605,27750 47605,33510 46605,33510"/><polygon points="50405,36730 51405,36730 51405,42490 50405,42490"/><polygon points="50405,36530 51405,36530 51405,36760 50405,36760"/><polygon points="48905,36730 49905,36730 49905,42490 48905,42490"/><polygon points="51905,36730 52905,36730 52905,42490 51905,42490"/><polygon points="39805,45185 40805,45185 40805,53445 39805,53445"/><polygon points="39805,44985 40805,44985 40805,45215 39805,45215"/><polygon points="38305,45185 39305,45185 39305,53445 38305,53445"/><polygon points="41305,45185 42305,45185 42305,53445 41305,53445"/><polygon points="50405,43990 51405,43990 51405,52250 50405,52250"/><polygon points="50405,43790 51405,43790 51405,44020 50405,44020"/><polygon points="48905,43990 49905,43990 49905,52250 48905,52250"/><polygon points="51905,43990 52905,43990 52905,52250 51905,52250"/><polygon points="21200,19780 22200,19780 22200,40040 21200,40040"/><polygon points="21200,19580 22200,19580 22200,19810 21200,19810"/><polygon points="19700,19780 20700,19780 20700,40040 19700,40040"/><polygon points="22700,19780 23700,19780 23700,40040 22700,40040"/><polygon points="22620,42775 23620,42775 23620,63035 22620,63035"/><polygon points="22620,42575 23620,42575 23620,42805 22620,42805"/><polygon points="21120,42775 22120,42775 22120,63035 21120,63035"/><polygon points="24120,42775 25120,42775 25120,63035 24120,63035"/><polygon points="33920,42570 34920,42570 34920,45230 33920,45230"/><polygon points="33920,42370 34920,42370 34920,42600 33920,42600"/><polygon points="32420,42570 33420,42570 33420,45230 32420,45230"/><polygon points="35420,42570 36420,42570 36420,45230 35420,45230"/><polygon points="46145,35265 46315,35265 46315,35435 46145,35435"/><polygon points="45520,34825 45690,34825 45690,34995 45520,34995"/><polygon points="44895,35265 45065,35265 45065,35435 44895,35435"/><polygon points="57005,26715 57175,26715 57175,26885 57005,26885"/><polygon points="56380,23285 56550,23285 56550,23455 56380,23455"/><polygon points="55755,26715 55925,26715 55925,26885 55755,26885"/><polygon points="51575,26770 51745,26770 51745,26940 51575,26940"/><polygon points="50950,23340 51120,23340 51120,23510 50950,23510"/><polygon points="50325,26770 50495,26770 50495,26940 50325,26940"/><polygon points="56745,39835 56915,39835 56915,40005 56745,40005"/><polygon points="56120,36405 56290,36405 56290,36575 56120,36575"/><polygon points="55495,39835 55665,39835 55665,40005 55495,40005"/><polygon points="40820,31460 40990,31460 40990,31630 40820,31630"/><polygon points="40195,28980 40365,28980 40365,29150 40195,29150"/><polygon points="39570,31460 39740,31460 39740,31630 39570,31630"/><polygon points="46145,39485 46315,39485 46315,39655 46145,39655"/><polygon points="45520,37005 45690,37005 45690,37175 45520,37175"/><polygon points="44895,39485 45065,39485 45065,39655 44895,39655"/><polygon points="57005,33275 57175,33275 57175,33445 57005,33445"/><polygon points="56380,31445 56550,31445 56550,31615 56380,31615"/><polygon points="55755,33275 55925,33275 55925,33445 55755,33445"/><polygon points="51445,33415 51615,33415 51615,33585 51445,33585"/><polygon points="50820,31585 50990,31585 50990,31755 50820,31755"/><polygon points="50195,33415 50365,33415 50365,33585 50195,33585"/><polygon points="54445,15965 54615,15965 54615,16135 54445,16135"/><polygon points="50320,11735 50490,11735 50490,11905 50320,11905"/><polygon points="46195,15965 46365,15965 46365,16135 46195,16135"/><polygon points="28135,29830 28305,29830 28305,30000 28135,30000"/><polygon points="27510,20100 27680,20100 27680,20270 27510,20270"/><polygon points="26885,29830 27055,29830 27055,30000 26885,30000"/><polygon points="29275,52820 29445,52820 29445,52990 29275,52990"/><polygon points="28650,43090 28820,43090 28820,43260 28650,43260"/><polygon points="28025,52820 28195,52820 28195,52990 28025,52990"/><polygon points="40845,39470 41015,39470 41015,39640 40845,39640"/><polygon points="40220,35240 40390,35240 40390,35410 40220,35410"/><polygon points="39595,39470 39765,39470 39765,39640 39595,39640"/><polygon points="33895,30470 34065,30470 34065,30640 33895,30640"/><polygon points="34145,30470 34315,30470 34315,30640 34145,30640"/><polygon points="33270,23990 33440,23990 33440,24160 33270,24160"/><polygon points="34770,23990 34940,23990 34940,24160 34770,24160"/><polygon points="32645,30470 32815,30470 32815,30640 32645,30640"/><polygon points="35395,30470 35565,30470 35565,30640 35395,30640"/><polygon points="46145,47495 46315,47495 46315,47665 46145,47665"/><polygon points="45520,43265 45690,43265 45690,43435 45520,43435"/><polygon points="44895,47495 45065,47495 45065,47665 44895,47665"/><polygon points="46145,30545 46315,30545 46315,30715 46145,30715"/><polygon points="45520,27565 45690,27565 45690,27735 45520,27735"/><polygon points="44895,30545 45065,30545 45065,30715 44895,30715"/><polygon points="51445,39525 51615,39525 51615,39695 51445,39695"/><polygon points="50820,36545 50990,36545 50990,36715 50820,36715"/><polygon points="50195,39525 50365,39525 50365,39695 50195,39695"/><polygon points="40845,49230 41015,49230 41015,49400 40845,49400"/><polygon points="40220,45000 40390,45000 40390,45170 40220,45170"/><polygon points="39595,49230 39765,49230 39765,49400 39595,49400"/><polygon points="51445,48035 51615,48035 51615,48205 51445,48205"/><polygon points="50820,43805 50990,43805 50990,43975 50820,43975"/><polygon points="50195,48035 50365,48035 50365,48205 50195,48205"/><polygon points="22240,29825 22410,29825 22410,29995 22240,29995"/><polygon points="21615,19595 21785,19595 21785,19765 21615,19765"/><polygon points="20990,29825 21160,29825 21160,29995 20990,29995"/><polygon points="23660,52820 23830,52820 23830,52990 23660,52990"/><polygon points="23035,42590 23205,42590 23205,42760 23035,42760"/><polygon points="22410,52820 22580,52820 22580,52990 22410,52990"/><polygon points="34960,43815 35130,43815 35130,43985 34960,43985"/><polygon points="34335,42385 34505,42385 34505,42555 34335,42555"/><polygon points="33710,43815 33880,43815 33880,43985 33710,43985"/></g><g id="L67" fill="rgba(140,198,63,0.6)" stroke="rgba(210,255,95,1)" stroke-width="60"><polygon points="44895,35265 45065,35265 45065,35435 44895,35435"/><polygon points="46145,35265 46315,35265 46315,35435 46145,35435"/><polygon points="55755,26715 55925,26715 55925,26885 55755,26885"/><polygon points="57005,26715 57175,26715 57175,26885 57005,26885"/><polygon points="50325,26770 50495,26770 50495,26940 50325,26940"/><polygon points="51575,26770 51745,26770 51745,26940 51575,26940"/><polygon points="55495,39835 55665,39835 55665,40005 55495,40005"/><polygon points="56745,39835 56915,39835 56915,40005 56745,40005"/><polygon points="39570,31460 39740,31460 39740,31630 39570,31630"/><polygon points="40820,31460 40990,31460 40990,31630 40820,31630"/><polygon points="44895,39485 45065,39485 45065,39655 44895,39655"/><polygon points="46145,39485 46315,39485 46315,39655 46145,39655"/><polygon points="55755,33275 55925,33275 55925,33445 55755,33445"/><polygon points="57005,33275 57175,33275 57175,33445 57005,33445"/><polygon points="50195,33415 50365,33415 50365,33585 50195,33585"/><polygon points="51445,33415 51615,33415 51615,33585 51445,33585"/><polygon points="46195,15965 46365,15965 46365,16135 46195,16135"/><polygon points="54445,15965 54615,15965 54615,16135 54445,16135"/><polygon points="26885,29830 27055,29830 27055,30000 26885,30000"/><polygon points="28135,29830 28305,29830 28305,30000 28135,30000"/><polygon points="28025,52820 28195,52820 28195,52990 28025,52990"/><polygon points="29275,52820 29445,52820 29445,52990 29275,52990"/><polygon points="39595,39470 39765,39470 39765,39640 39595,39640"/><polygon points="40845,39470 41015,39470 41015,39640 40845,39640"/><polygon points="32645,30470 32815,30470 32815,30640 32645,30640"/><polygon points="33895,30470 34065,30470 34065,30640 33895,30640"/><polygon points="34145,30470 34315,30470 34315,30640 34145,30640"/><polygon points="35395,30470 35565,30470 35565,30640 35395,30640"/><polygon points="44895,47495 45065,47495 45065,47665 44895,47665"/><polygon points="46145,47495 46315,47495 46315,47665 46145,47665"/><polygon points="44895,30545 45065,30545 45065,30715 44895,30715"/><polygon points="46145,30545 46315,30545 46315,30715 46145,30715"/><polygon points="50195,39525 50365,39525 50365,39695 50195,39695"/><polygon points="51445,39525 51615,39525 51615,39695 51445,39695"/><polygon points="39595,49230 39765,49230 39765,49400 39595,49400"/><polygon points="40845,49230 41015,49230 41015,49400 40845,49400"/><polygon points="50195,48035 50365,48035 50365,48205 50195,48205"/><polygon points="51445,48035 51615,48035 51615,48205 51445,48205"/><polygon points="20990,29825 21160,29825 21160,29995 20990,29995"/><polygon points="22240,29825 22410,29825 22410,29995 22240,29995"/><polygon points="22410,52820 22580,52820 22580,52990 22410,52990"/><polygon points="23660,52820 23830,52820 23830,52990 23660,52990"/><polygon points="33710,43815 33880,43815 33880,43985 33710,43985"/><polygon points="34960,43815 35130,43815 35130,43985 34960,43985"/><polygon points="46145,35265 46315,35265 46315,35435 46145,35435"/><polygon points="45520,34825 45690,34825 45690,34995 45520,34995"/><polygon points="45520,34825 45690,34825 45690,34995 45520,34995"/><polygon points="44895,35265 45065,35265 45065,35435 44895,35435"/><polygon points="57005,26715 57175,26715 57175,26885 57005,26885"/><polygon points="56380,23285 56550,23285 56550,23455 56380,23455"/><polygon points="56380,23285 56550,23285 56550,23455 56380,23455"/><polygon points="55755,26715 55925,26715 55925,26885 55755,26885"/><polygon points="51575,26770 51745,26770 51745,26940 51575,26940"/><polygon points="50950,23340 51120,23340 51120,23510 50950,23510"/><polygon points="50950,23340 51120,23340 51120,23510 50950,23510"/><polygon points="50325,26770 50495,26770 50495,26940 50325,26940"/><polygon points="56745,39835 56915,39835 56915,40005 56745,40005"/><polygon points="56120,36405 56290,36405 56290,36575 56120,36575"/><polygon points="56120,36405 56290,36405 56290,36575 56120,36575"/><polygon points="55495,39835 55665,39835 55665,40005 55495,40005"/><polygon points="40820,31460 40990,31460 40990,31630 40820,31630"/><polygon points="40195,28980 40365,28980 40365,29150 40195,29150"/><polygon points="40195,28980 40365,28980 40365,29150 40195,29150"/><polygon points="39570,31460 39740,31460 39740,31630 39570,31630"/><polygon points="46145,39485 46315,39485 46315,39655 46145,39655"/><polygon points="45520,37005 45690,37005 45690,37175 45520,37175"/><polygon points="45520,37005 45690,37005 45690,37175 45520,37175"/><polygon points="44895,39485 45065,39485 45065,39655 44895,39655"/><polygon points="57005,33275 57175,33275 57175,33445 57005,33445"/><polygon points="56380,31445 56550,31445 56550,31615 56380,31615"/><polygon points="56380,31445 56550,31445 56550,31615 56380,31615"/><polygon points="55755,33275 55925,33275 55925,33445 55755,33445"/><polygon points="51445,33415 51615,33415 51615,33585 51445,33585"/><polygon points="50820,31585 50990,31585 50990,31755 50820,31755"/><polygon points="50820,31585 50990,31585 50990,31755 50820,31755"/><polygon points="50195,33415 50365,33415 50365,33585 50195,33585"/><polygon points="54445,15965 54615,15965 54615,16135 54445,16135"/><polygon points="50320,11735 50490,11735 50490,11905 50320,11905"/><polygon points="50320,11735 50490,11735 50490,11905 50320,11905"/><polygon points="46195,15965 46365,15965 46365,16135 46195,16135"/><polygon points="28135,29830 28305,29830 28305,30000 28135,30000"/><polygon points="27510,20100 27680,20100 27680,20270 27510,20270"/><polygon points="27510,20100 27680,20100 27680,20270 27510,20270"/><polygon points="26885,29830 27055,29830 27055,30000 26885,30000"/><polygon points="29275,52820 29445,52820 29445,52990 29275,52990"/><polygon points="28650,43090 28820,43090 28820,43260 28650,43260"/><polygon points="28650,43090 28820,43090 28820,43260 28650,43260"/><polygon points="28025,52820 28195,52820 28195,52990 28025,52990"/><polygon points="40845,39470 41015,39470 41015,39640 40845,39640"/><polygon points="40220,35240 40390,35240 40390,35410 40220,35410"/><polygon points="40220,35240 40390,35240 40390,35410 40220,35410"/><polygon points="39595,39470 39765,39470 39765,39640 39595,39640"/><polygon points="33895,30470 34065,30470 34065,30640 33895,30640"/><polygon points="34145,30470 34315,30470 34315,30640 34145,30640"/><polygon points="33270,23990 34940,23990 34940,24160 33270,24160"/><polygon points="34770,23990 34940,23990 34940,24160 34770,24160"/><polygon points="32645,30470 32815,30470 32815,30640 32645,30640"/><polygon points="35395,30470 35565,30470 35565,30640 35395,30640"/><polygon points="46145,47495 46315,47495 46315,47665 46145,47665"/><polygon points="45520,43265 45690,43265 45690,43435 45520,43435"/><polygon points="45520,43265 45690,43265 45690,43435 45520,43435"/><polygon points="44895,47495 45065,47495 45065,47665 44895,47665"/><polygon points="46145,30545 46315,30545 46315,30715 46145,30715"/><polygon points="45520,27565 45690,27565 45690,27735 45520,27735"/><polygon points="45520,27565 45690,27565 45690,27735 45520,27735"/><polygon points="44895,30545 45065,30545 45065,30715 44895,30715"/><polygon points="51445,39525 51615,39525 51615,39695 51445,39695"/><polygon points="50820,36545 50990,36545 50990,36715 50820,36715"/><polygon points="50820,36545 50990,36545 50990,36715 50820,36715"/><polygon points="50195,39525 50365,39525 50365,39695 50195,39695"/><polygon points="40845,49230 41015,49230 41015,49400 40845,49400"/><polygon points="40220,45000 40390,45000 40390,45170 40220,45170"/><polygon points="40220,45000 40390,45000 40390,45170 40220,45170"/><polygon points="39595,49230 39765,49230 39765,49400 39595,49400"/><polygon points="51445,48035 51615,48035 51615,48205 51445,48205"/><polygon points="50820,43805 50990,43805 50990,43975 50820,43975"/><polygon points="50820,43805 50990,43805 50990,43975 50820,43975"/><polygon points="50195,48035 50365,48035 50365,48205 50195,48205"/><polygon points="22240,29825 22410,29825 22410,29995 22240,29995"/><polygon points="21615,19595 21785,19595 21785,19765 21615,19765"/><polygon points="21615,19595 21785,19595 21785,19765 21615,19765"/><polygon points="20990,29825 21160,29825 21160,29995 20990,29995"/><polygon points="23660,52820 23830,52820 23830,52990 23660,52990"/><polygon points="23035,42590 23205,42590 23205,42760 23035,42760"/><polygon points="23035,42590 23205,42590 23205,42760 23035,42760"/><polygon points="22410,52820 22580,52820 22580,52990 22410,52990"/><polygon points="34960,43815 35130,43815 35130,43985 34960,43985"/><polygon points="34335,42385 34505,42385 34505,42555 34335,42555"/><polygon points="34335,42385 34505,42385 34505,42555 34335,42555"/><polygon points="33710,43815 33880,43815 33880,43985 33710,43985"/></g><g id="L68" fill="rgba(216,114,140,0.6)" stroke="rgba(255,172,210,1)" stroke-width="60"><polygon points="40060,28020 41210,28020 41210,28310 40060,28310"/><polygon points="40060,26300 45940,26300 45940,26590 40060,26590"/><polygon points="45650,26730 46370,26730 46370,27020 45650,27020"/><polygon points="44790,9100 50240,9100 50240,9390 44790,9390"/><polygon points="49950,9100 55830,9100 55830,9390 49950,9390"/><polygon points="50380,53390 55830,53390 55830,53680 50380,53680"/><polygon points="33610,30600 34330,30600 34330,30890 33610,30890"/><polygon points="34040,8240 46370,8240 46370,8530 34040,8530"/><polygon points="46080,8240 57120,8240 57120,8530 46080,8530"/><polygon points="50810,8670 56690,8670 56690,8960 50810,8960"/><polygon points="56400,43930 57120,43930 57120,44220 56400,44220"/><polygon points="55970,43930 56690,43930 56690,44220 55970,44220"/><polygon points="51240,52960 56260,52960 56260,53250 51240,53250"/><polygon points="39630,25870 46370,25870 46370,26160 39630,26160"/><polygon points="46080,25870 48090,25870 48090,26160 46080,26160"/><polygon points="47800,7810 51960,7810 51960,8100 47800,8100"/><polygon points="44360,52530 45080,52530 45080,52820 44360,52820"/><polygon points="44360,53820 51530,53820 51530,54110 44360,54110"/><polygon points="51240,53820 57120,53820 57120,54110 51240,54110"/><polygon points="28020,41350 34330,41350 34330,41640 28020,41640"/><polygon points="34040,38770 35190,38770 35190,39060 34040,39060"/><polygon points="34900,38770 37770,38770 37770,39060 34900,39060"/><polygon points="37480,27590 41210,27590 41210,27880 37480,27880"/><polygon points="21570,16840 23150,16840 23150,17130 21570,17130"/><polygon points="22860,64570 29600,64570 29600,64860 22860,64860"/><polygon points="29310,64570 46370,64570 46370,64860 29310,64860"/><polygon points="27590,41780 28740,41780 28740,42070 27590,42070"/><polygon points="28450,41780 31750,41780 31750,42070 28450,42070"/><polygon points="31460,40920 34760,40920 34760,41210 31460,41210"/><polygon points="34470,40920 35190,40920 35190,41210 34470,41210"/><polygon points="27590,6950 51530,6950 51530,7240 27590,7240"/><polygon points="22000,17700 27020,17700 27020,17990 22000,17990"/><polygon points="23720,64140 28310,64140 28310,64430 23720,64430"/><polygon points="40060,54250 45940,54250 45940,54540 40060,54540"/><polygon points="45650,54250 51100,54250 51100,54540 45650,54540"/><polygon points="21140,9100 33040,9100 33040,9390 21140,9390"/><polygon points="32750,38340 35620,38340 35620,38630 32750,38630"/><polygon points="21140,17270 22720,17270 22720,17560 21140,17560"/><polygon points="33610,54250 39920,54250 39920,54540 33610,54540"/><polygon points="39630,54680 45080,54680 45080,54970 39630,54970"/><polygon points="44790,52960 50240,52960 50240,53250 44790,53250"/><polygon points="44790,26730 45510,26730 45510,27020 44790,27020"/><polygon points="45220,8670 50240,8670 50240,8960 45220,8960"/><polygon points="45220,52530 46370,52530 46370,52820 45220,52820"/><polygon points="40120,28940 40290,28940 40290,29110 40120,29110"/><polygon points="40060,28880 40350,28880 40350,29170 40060,29170"/><polygon points="40120,28080 40290,28080 40290,28250 40120,28250"/><polygon points="40060,28020 40350,28020 40350,28310 40060,28310"/><polygon points="40980,28080 41150,28080 41150,28250 40980,28250"/><polygon points="40920,28020 41210,28020 41210,28310 40920,28310"/><polygon points="40980,39260 41150,39260 41150,39430 40980,39430"/><polygon points="40920,39200 41210,39200 41210,39490 40920,39490"/><polygon points="40120,26360 40290,26360 40290,26530 40120,26530"/><polygon points="40060,26300 40350,26300 40350,26590 40060,26590"/><polygon points="45710,26360 45880,26360 45880,26530 45710,26530"/><polygon points="45650,26300 45940,26300 45940,26590 45650,26590"/><polygon points="45710,34960 45880,34960 45880,35130 45710,35130"/><polygon points="45650,34900 45940,34900 45940,35190 45650,35190"/><polygon points="45710,26790 45880,26790 45880,26960 45710,26960"/><polygon points="45650,26730 45940,26730 45940,27020 45650,27020"/><polygon points="46140,26790 46310,26790 46310,26960 46140,26960"/><polygon points="46080,26730 46370,26730 46370,27020 46080,27020"/><polygon points="46140,35390 46310,35390 46310,35560 46140,35560"/><polygon points="46080,35330 46370,35330 46370,35620 46080,35620"/><polygon points="45710,37110 45880,37110 45880,37280 45710,37280"/><polygon points="45650,37050 45940,37050 45940,37340 45650,37340"/><polygon points="44850,35390 45020,35390 45020,35560 44850,35560"/><polygon points="44790,35330 45080,35330 45080,35620 44790,35620"/><polygon points="44850,9160 45020,9160 45020,9330 44850,9330"/><polygon points="44790,9100 45080,9100 45080,9390 44790,9390"/><polygon points="50010,9160 50180,9160 50180,9330 50010,9330"/><polygon points="49950,9100 50240,9100 50240,9390 49950,9390"/><polygon points="50010,33240 50180,33240 50180,33410 50010,33410"/><polygon points="49950,33180 50240,33180 50240,33470 49950,33470"/><polygon points="55600,9160 55770,9160 55770,9330 55600,9330"/><polygon points="55540,9100 55830,9100 55830,9390 55540,9390"/><polygon points="55600,33240 55770,33240 55770,33410 55600,33410"/><polygon points="55540,33180 55830,33180 55830,33470 55540,33470"/><polygon points="55600,53450 55770,53450 55770,53620 55600,53620"/><polygon points="55540,53390 55830,53390 55830,53680 55540,53680"/><polygon points="50440,53450 50610,53450 50610,53620 50440,53620"/><polygon points="50380,53390 50670,53390 50670,53680 50380,53680"/><polygon points="50440,26790 50610,26790 50610,26960 50440,26960"/><polygon points="50380,26730 50670,26730 50670,27020 50380,27020"/><polygon points="55600,39690 55770,39690 55770,39860 55600,39860"/><polygon points="55540,39630 55830,39630 55830,39920 55540,39920"/><polygon points="55600,26790 55770,26790 55770,26960 55600,26960"/><polygon points="55540,26730 55830,26730 55830,27020 55540,27020"/><polygon points="34100,30660 34270,30660 34270,30830 34100,30830"/><polygon points="34040,30600 34330,30600 34330,30890 34040,30890"/><polygon points="34100,8300 34270,8300 34270,8470 34100,8470"/><polygon points="34040,8240 34330,8240 34330,8530 34040,8530"/><polygon points="46140,8300 46310,8300 46310,8470 46140,8470"/><polygon points="46080,8240 46370,8240 46370,8530 46080,8530"/><polygon points="46140,16040 46310,16040 46310,16210 46140,16210"/><polygon points="46080,15980 46370,15980 46370,16270 46080,16270"/><polygon points="56890,8300 57060,8300 57060,8470 56890,8470"/><polygon points="56830,8240 57120,8240 57120,8530 56830,8530"/><polygon points="56890,26790 57060,26790 57060,26960 56890,26960"/><polygon points="56830,26730 57120,26730 57120,27020 56830,27020"/><polygon points="54310,8300 54480,8300 54480,8470 54310,8470"/><polygon points="54250,8240 54540,8240 54540,8530 54250,8530"/><polygon points="54310,16040 54480,16040 54480,16210 54310,16210"/><polygon points="54250,15980 54540,15980 54540,16270 54250,16270"/><polygon points="50870,31520 51040,31520 51040,31690 50870,31690"/><polygon points="50810,31460 51100,31460 51100,31750 50810,31750"/><polygon points="50870,8730 51040,8730 51040,8900 50870,8900"/><polygon points="50810,8670 51100,8670 51100,8960 50810,8960"/><polygon points="56460,8730 56630,8730 56630,8900 56460,8900"/><polygon points="56400,8670 56690,8670 56690,8960 56400,8960"/><polygon points="56460,31520 56630,31520 56630,31690 56460,31690"/><polygon points="56400,31460 56690,31460 56690,31750 56400,31750"/><polygon points="56460,43990 56630,43990 56630,44160 56460,44160"/><polygon points="56400,43930 56690,43930 56690,44220 56400,44220"/><polygon points="56890,43990 57060,43990 57060,44160 56890,44160"/><polygon points="56830,43930 57120,43930 57120,44220 56830,44220"/><polygon points="56890,33240 57060,33240 57060,33410 56890,33410"/><polygon points="56830,33180 57120,33180 57120,33470 56830,33470"/><polygon points="50870,23350 51040,23350 51040,23520 50870,23520"/><polygon points="50810,23290 51100,23290 51100,23580 50810,23580"/><polygon points="56030,43990 56200,43990 56200,44160 56030,44160"/><polygon points="55970,43930 56260,43930 56260,44220 55970,44220"/><polygon points="56030,36250 56200,36250 56200,36420 56030,36420"/><polygon points="55970,36190 56260,36190 56260,36480 55970,36480"/><polygon points="56460,23350 56630,23350 56630,23520 56460,23520"/><polygon points="56400,23290 56690,23290 56690,23580 56400,23580"/><polygon points="56030,53020 56200,53020 56200,53190 56030,53190"/><polygon points="55970,52960 56260,52960 56260,53250 55970,53250"/><polygon points="51300,53020 51470,53020 51470,53190 51300,53190"/><polygon points="51240,52960 51530,52960 51530,53250 51240,53250"/><polygon points="51300,47860 51470,47860 51470,48030 51300,48030"/><polygon points="51240,47800 51530,47800 51530,48090 51240,48090"/><polygon points="39690,31520 39860,31520 39860,31690 39690,31690"/><polygon points="39630,31460 39920,31460 39920,31750 39630,31750"/><polygon points="39690,25930 39860,25930 39860,26100 39690,26100"/><polygon points="39630,25870 39920,25870 39920,26160 39630,26160"/><polygon points="46140,25930 46310,25930 46310,26100 46140,26100"/><polygon points="46080,25870 46370,25870 46370,26160 46080,26160"/><polygon points="46140,30660 46310,30660 46310,30830 46140,30830"/><polygon points="46080,30600 46370,30600 46370,30890 46080,30890"/><polygon points="47860,25930 48030,25930 48030,26100 47860,26100"/><polygon points="47800,25870 48090,25870 48090,26160 47800,26160"/><polygon points="47860,7870 48030,7870 48030,8040 47860,8040"/><polygon points="47800,7810 48090,7810 48090,8100 47800,8100"/><polygon points="51730,7870 51900,7870 51900,8040 51730,8040"/><polygon points="51670,7810 51960,7810 51960,8100 51670,8100"/><polygon points="51730,26790 51900,26790 51900,26960 51730,26960"/><polygon points="51670,26730 51960,26730 51960,27020 51670,27020"/><polygon points="50440,7870 50610,7870 50610,8040 50440,8040"/><polygon points="50380,7810 50670,7810 50670,8100 50380,8100"/><polygon points="50440,11740 50610,11740 50610,11910 50440,11910"/><polygon points="50380,11680 50670,11680 50670,11970 50380,11970"/><polygon points="44850,39690 45020,39690 45020,39860 44850,39860"/><polygon points="44790,39630 45080,39630 45080,39920 44790,39920"/><polygon points="44850,52590 45020,52590 45020,52760 44850,52760"/><polygon points="44790,52530 45080,52530 45080,52820 44790,52820"/><polygon points="44420,52590 44590,52590 44590,52760 44420,52760"/><polygon points="44360,52530 44650,52530 44650,52820 44360,52820"/><polygon points="44420,53880 44590,53880 44590,54050 44420,54050"/><polygon points="44360,53820 44650,53820 44650,54110 44360,54110"/><polygon points="51300,53880 51470,53880 51470,54050 51300,54050"/><polygon points="51240,53820 51530,53820 51530,54110 51240,54110"/><polygon points="51300,39690 51470,39690 51470,39860 51300,39860"/><polygon points="51240,39630 51530,39630 51530,39920 51240,39920"/><polygon points="56890,53880 57060,53880 57060,54050 56890,54050"/><polygon points="56830,53820 57120,53820 57120,54110 56830,54110"/><polygon points="56890,39690 57060,39690 57060,39860 56890,39860"/><polygon points="56830,39630 57120,39630 57120,39920 56830,39920"/><polygon points="28080,29800 28250,29800 28250,29970 28080,29970"/><polygon points="28020,29740 28310,29740 28310,30030 28020,30030"/><polygon points="28080,41410 28250,41410 28250,41580 28080,41580"/><polygon points="28020,41350 28310,41350 28310,41640 28020,41640"/><polygon points="34100,41410 34270,41410 34270,41580 34100,41580"/><polygon points="34040,41350 34330,41350 34330,41640 34040,41640"/><polygon points="34100,38830 34270,38830 34270,39000 34100,39000"/><polygon points="34040,38770 34330,38770 34330,39060 34040,39060"/><polygon points="34960,38830 35130,38830 35130,39000 34960,39000"/><polygon points="34900,38770 35190,38770 35190,39060 34900,39060"/><polygon points="34960,23780 35130,23780 35130,23950 34960,23950"/><polygon points="34900,23720 35190,23720 35190,24010 34900,24010"/><polygon points="37540,38830 37710,38830 37710,39000 37540,39000"/><polygon points="37480,38770 37770,38770 37770,39060 37480,39060"/><polygon points="37540,27650 37710,27650 37710,27820 37540,27820"/><polygon points="37480,27590 37770,27590 37770,27880 37480,27880"/><polygon points="40980,27650 41150,27650 41150,27820 40980,27820"/><polygon points="40920,27590 41210,27590 41210,27880 40920,27880"/><polygon points="40980,31520 41150,31520 41150,31690 40980,31690"/><polygon points="40920,31460 41210,31460 41210,31750 40920,31750"/><polygon points="21630,19480 21800,19480 21800,19650 21630,19650"/><polygon points="21570,19420 21860,19420 21860,19710 21570,19710"/><polygon points="21630,16900 21800,16900 21800,17070 21630,17070"/><polygon points="21570,16840 21860,16840 21860,17130 21570,17130"/><polygon points="22920,16900 23090,16900 23090,17070 22920,17070"/><polygon points="22860,16840 23150,16840 23150,17130 22860,17130"/><polygon points="22920,42700 23090,42700 23090,42870 22920,42870"/><polygon points="22860,42640 23150,42640 23150,42930 22860,42930"/><polygon points="22920,64630 23090,64630 23090,64800 22920,64800"/><polygon points="22860,64570 23150,64570 23150,64860 22860,64860"/><polygon points="29370,64630 29540,64630 29540,64800 29370,64800"/><polygon points="29310,64570 29600,64570 29600,64860 29310,64860"/><polygon points="29370,53020 29540,53020 29540,53190 29370,53190"/><polygon points="29310,52960 29600,52960 29600,53250 29310,53250"/><polygon points="46140,64630 46310,64630 46310,64800 46140,64800"/><polygon points="46080,64570 46370,64570 46370,64860 46080,64860"/><polygon points="46140,39690 46310,39690 46310,39860 46140,39860"/><polygon points="46080,39630 46370,39630 46370,39920 46080,39920"/><polygon points="27650,19910 27820,19910 27820,20080 27650,20080"/><polygon points="27590,19850 27880,19850 27880,20140 27590,20140"/><polygon points="27650,41840 27820,41840 27820,42010 27650,42010"/><polygon points="27590,41780 27880,41780 27880,42070 27590,42070"/><polygon points="28510,41840 28680,41840 28680,42010 28510,42010"/><polygon points="28450,41780 28740,41780 28740,42070 28450,42070"/><polygon points="28510,43130 28680,43130 28680,43300 28510,43300"/><polygon points="28450,43070 28740,43070 28740,43360 28450,43360"/><polygon points="31520,41840 31690,41840 31690,42010 31520,42010"/><polygon points="31460,41780 31750,41780 31750,42070 31460,42070"/><polygon points="31520,40980 31690,40980 31690,41150 31520,41150"/><polygon points="31460,40920 31750,40920 31750,41210 31460,41210"/><polygon points="34530,40980 34700,40980 34700,41150 34530,41150"/><polygon points="34470,40920 34760,40920 34760,41210 34470,41210"/><polygon points="34530,42270 34700,42270 34700,42440 34530,42440"/><polygon points="34470,42210 34760,42210 34760,42500 34470,42500"/><polygon points="34960,40980 35130,40980 35130,41150 34960,41150"/><polygon points="34900,40920 35190,40920 35190,41210 34900,41210"/><polygon points="34960,43990 35130,43990 35130,44160 34960,44160"/><polygon points="34900,43930 35190,43930 35190,44220 34900,44220"/><polygon points="27650,7010 27820,7010 27820,7180 27650,7180"/><polygon points="27590,6950 27880,6950 27880,7240 27590,7240"/><polygon points="51300,7010 51470,7010 51470,7180 51300,7180"/><polygon points="51240,6950 51530,6950 51530,7240 51240,7240"/><polygon points="51300,33240 51470,33240 51470,33410 51300,33410"/><polygon points="51240,33180 51530,33180 51530,33470 51240,33470"/><polygon points="22060,29800 22230,29800 22230,29970 22060,29970"/><polygon points="22000,29740 22290,29740 22290,30030 22000,30030"/><polygon points="22060,17760 22230,17760 22230,17930 22060,17930"/><polygon points="22000,17700 22290,17700 22290,17990 22000,17990"/><polygon points="26790,17760 26960,17760 26960,17930 26790,17930"/><polygon points="26730,17700 27020,17700 27020,17990 26730,17990"/><polygon points="26790,29800 26960,29800 26960,29970 26790,29970"/><polygon points="26730,29740 27020,29740 27020,30030 26730,30030"/><polygon points="23780,53020 23950,53020 23950,53190 23780,53190"/><polygon points="23720,52960 24010,52960 24010,53250 23720,53250"/><polygon points="23780,64200 23950,64200 23950,64370 23780,64370"/><polygon points="23720,64140 24010,64140 24010,64430 23720,64430"/><polygon points="28080,64200 28250,64200 28250,64370 28080,64370"/><polygon points="28020,64140 28310,64140 28310,64430 28020,64430"/><polygon points="28080,53020 28250,53020 28250,53190 28080,53190"/><polygon points="28020,52960 28310,52960 28310,53250 28020,53250"/><polygon points="40120,35390 40290,35390 40290,35560 40120,35560"/><polygon points="40060,35330 40350,35330 40350,35620 40060,35620"/><polygon points="40120,44850 40290,44850 40290,45020 40120,45020"/><polygon points="40060,44790 40350,44790 40350,45080 40060,45080"/><polygon points="40120,54310 40290,54310 40290,54480 40120,54480"/><polygon points="40060,54250 40350,54250 40350,54540 40060,54540"/><polygon points="45710,54310 45880,54310 45880,54480 45710,54480"/><polygon points="45650,54250 45940,54250 45940,54540 45650,54540"/><polygon points="45710,43130 45880,43130 45880,43300 45710,43300"/><polygon points="45650,43070 45940,43070 45940,43360 45650,43360"/><polygon points="40980,54310 41150,54310 41150,54480 40980,54480"/><polygon points="40920,54250 41210,54250 41210,54540 40920,54540"/><polygon points="40980,49150 41150,49150 41150,49320 40980,49320"/><polygon points="40920,49090 41210,49090 41210,49380 40920,49380"/><polygon points="50870,54310 51040,54310 51040,54480 50870,54480"/><polygon points="50810,54250 51100,54250 51100,54540 50810,54540"/><polygon points="50870,43990 51040,43990 51040,44160 50870,44160"/><polygon points="50810,43930 51100,43930 51100,44220 50810,44220"/><polygon points="21200,29800 21370,29800 21370,29970 21200,29970"/><polygon points="21140,29740 21430,29740 21430,30030 21140,30030"/><polygon points="21200,9160 21370,9160 21370,9330 21200,9330"/><polygon points="21140,9100 21430,9100 21430,9390 21140,9390"/><polygon points="32810,9160 32980,9160 32980,9330 32810,9330"/><polygon points="32750,9100 33040,9100 33040,9390 32750,9390"/><polygon points="32810,30660 32980,30660 32980,30830 32810,30830"/><polygon points="32750,30600 33040,30600 33040,30890 32750,30890"/><polygon points="32810,38400 32980,38400 32980,38570 32810,38570"/><polygon points="32750,38340 33040,38340 33040,38630 32750,38630"/><polygon points="35390,38400 35560,38400 35560,38570 35390,38570"/><polygon points="35330,38340 35620,38340 35620,38630 35330,38630"/><polygon points="35390,30660 35560,30660 35560,30830 35390,30830"/><polygon points="35330,30600 35620,30600 35620,30890 35330,30890"/><polygon points="21200,17330 21370,17330 21370,17500 21200,17500"/><polygon points="21140,17270 21430,17270 21430,17560 21140,17560"/><polygon points="22490,17330 22660,17330 22660,17500 22490,17500"/><polygon points="22430,17270 22720,17270 22720,17560 22430,17560"/><polygon points="22490,53020 22660,53020 22660,53190 22490,53190"/><polygon points="22430,52960 22720,52960 22720,53250 22430,53250"/><polygon points="33670,38400 33840,38400 33840,38570 33670,38570"/><polygon points="33610,38340 33900,38340 33900,38630 33610,38630"/><polygon points="33670,43990 33840,43990 33840,44160 33670,44160"/><polygon points="33610,43930 33900,43930 33900,44220 33610,44220"/><polygon points="33670,54310 33840,54310 33840,54480 33670,54480"/><polygon points="33610,54250 33900,54250 33900,54540 33610,54540"/><polygon points="39690,54310 39860,54310 39860,54480 39690,54480"/><polygon points="39630,54250 39920,54250 39920,54540 39630,54540"/><polygon points="39690,39260 39860,39260 39860,39430 39690,39430"/><polygon points="39630,39200 39920,39200 39920,39490 39630,39490"/><polygon points="39690,49150 39860,49150 39860,49320 39690,49320"/><polygon points="39630,49090 39920,49090 39920,49380 39630,49380"/><polygon points="39690,54740 39860,54740 39860,54910 39690,54910"/><polygon points="39630,54680 39920,54680 39920,54970 39630,54970"/><polygon points="44850,54740 45020,54740 45020,54910 44850,54910"/><polygon points="44790,54680 45080,54680 45080,54970 44790,54970"/><polygon points="44850,47430 45020,47430 45020,47600 44850,47600"/><polygon points="44790,47370 45080,47370 45080,47660 44790,47660"/><polygon points="44850,53020 45020,53020 45020,53190 44850,53190"/><polygon points="44790,52960 45080,52960 45080,53250 44790,53250"/><polygon points="50010,53020 50180,53020 50180,53190 50010,53190"/><polygon points="49950,52960 50240,52960 50240,53250 49950,53250"/><polygon points="50010,47860 50180,47860 50180,48030 50010,48030"/><polygon points="49950,47800 50240,47800 50240,48090 49950,48090"/><polygon points="44850,30660 45020,30660 45020,30830 44850,30830"/><polygon points="44790,30600 45080,30600 45080,30890 44790,30890"/><polygon points="44850,26790 45020,26790 45020,26960 44850,26960"/><polygon points="44790,26730 45080,26730 45080,27020 44790,27020"/><polygon points="45280,26790 45450,26790 45450,26960 45280,26960"/><polygon points="45220,26730 45510,26730 45510,27020 45220,27020"/><polygon points="45280,8730 45450,8730 45450,8900 45280,8900"/><polygon points="45220,8670 45510,8670 45510,8960 45220,8960"/><polygon points="50010,8730 50180,8730 50180,8900 50010,8900"/><polygon points="49950,8670 50240,8670 50240,8960 49950,8960"/><polygon points="50010,39690 50180,39690 50180,39860 50010,39860"/><polygon points="49950,39630 50240,39630 50240,39920 49950,39920"/><polygon points="45280,52590 45450,52590 45450,52760 45280,52760"/><polygon points="45220,52530 45510,52530 45510,52820 45220,52820"/><polygon points="46140,52590 46310,52590 46310,52760 46140,52760"/><polygon points="46080,52530 46370,52530 46370,52820 46080,52820"/><polygon points="46140,47430 46310,47430 46310,47600 46140,47600"/><polygon points="46080,47370 46370,47370 46370,47660 46080,47660"/><polygon points="46085,35205 46375,35205 46375,35495 46085,35495"/><polygon points="45460,34765 45750,34765 45750,35055 45460,35055"/><polygon points="44835,35205 45125,35205 45125,35495 44835,35495"/><polygon points="56945,26655 57235,26655 57235,26945 56945,26945"/><polygon points="56320,23225 56610,23225 56610,23515 56320,23515"/><polygon points="55695,26655 55985,26655 55985,26945 55695,26945"/><polygon points="51515,26710 51805,26710 51805,27000 51515,27000"/><polygon points="50890,23280 51180,23280 51180,23570 50890,23570"/><polygon points="50265,26710 50555,26710 50555,27000 50265,27000"/><polygon points="56685,39775 56975,39775 56975,40065 56685,40065"/><polygon points="56060,36345 56350,36345 56350,36635 56060,36635"/><polygon points="55435,39775 55725,39775 55725,40065 55435,40065"/><polygon points="40760,31400 41050,31400 41050,31690 40760,31690"/><polygon points="40135,28920 40425,28920 40425,29210 40135,29210"/><polygon points="39510,31400 39800,31400 39800,31690 39510,31690"/><polygon points="46085,39425 46375,39425 46375,39715 46085,39715"/><polygon points="45460,36945 45750,36945 45750,37235 45460,37235"/><polygon points="44835,39425 45125,39425 45125,39715 44835,39715"/><polygon points="56945,33215 57235,33215 57235,33505 56945,33505"/><polygon points="56320,31385 56610,31385 56610,31675 56320,31675"/><polygon points="55695,33215 55985,33215 55985,33505 55695,33505"/><polygon points="51385,33355 51675,33355 51675,33645 51385,33645"/><polygon points="50760,31525 51050,31525 51050,31815 50760,31815"/><polygon points="50135,33355 50425,33355 50425,33645 50135,33645"/><polygon points="54385,15905 54675,15905 54675,16195 54385,16195"/><polygon points="50260,11675 50550,11675 50550,11965 50260,11965"/><polygon points="46135,15905 46425,15905 46425,16195 46135,16195"/><polygon points="28075,29770 28365,29770 28365,30060 28075,30060"/><polygon points="27450,20040 27740,20040 27740,20330 27450,20330"/><polygon points="26825,29770 27115,29770 27115,30060 26825,30060"/><polygon points="29215,52760 29505,52760 29505,53050 29215,53050"/><polygon points="28590,43030 28880,43030 28880,43320 28590,43320"/><polygon points="27965,52760 28255,52760 28255,53050 27965,53050"/><polygon points="40785,39410 41075,39410 41075,39700 40785,39700"/><polygon points="40160,35180 40450,35180 40450,35470 40160,35470"/><polygon points="39535,39410 39825,39410 39825,39700 39535,39700"/><polygon points="33835,30410 34375,30410 34375,30700 33835,30700"/><polygon points="34710,23930 35000,23930 35000,24220 34710,24220"/><polygon points="32585,30410 32875,30410 32875,30700 32585,30700"/><polygon points="35335,30410 35625,30410 35625,30700 35335,30700"/><polygon points="46085,47435 46375,47435 46375,47725 46085,47725"/><polygon points="45460,43205 45750,43205 45750,43495 45460,43495"/><polygon points="44835,47435 45125,47435 45125,47725 44835,47725"/><polygon points="46085,30485 46375,30485 46375,30775 46085,30775"/><polygon points="45460,27505 45750,27505 45750,27795 45460,27795"/><polygon points="44835,30485 45125,30485 45125,30775 44835,30775"/><polygon points="51385,39465 51675,39465 51675,39755 51385,39755"/><polygon points="50760,36485 51050,36485 51050,36775 50760,36775"/><polygon points="50135,39465 50425,39465 50425,39755 50135,39755"/><polygon points="40785,49170 41075,49170 41075,49460 40785,49460"/><polygon points="40160,44940 40450,44940 40450,45230 40160,45230"/><polygon points="39535,49170 39825,49170 39825,49460 39535,49460"/><polygon points="51385,47975 51675,47975 51675,48265 51385,48265"/><polygon points="50760,43745 51050,43745 51050,44035 50760,44035"/><polygon points="50135,47975 50425,47975 50425,48265 50135,48265"/><polygon points="22180,29765 22470,29765 22470,30055 22180,30055"/><polygon points="21555,19535 21845,19535 21845,19825 21555,19825"/><polygon points="20930,29765 21220,29765 21220,30055 20930,30055"/><polygon points="23600,52760 23890,52760 23890,53050 23600,53050"/><polygon points="22975,42530 23265,42530 23265,42820 22975,42820"/><polygon points="22350,52760 22640,52760 22640,53050 22350,53050"/><polygon points="34900,43755 35190,43755 35190,44045 34900,44045"/><polygon points="34275,42325 34565,42325 34565,42615 34275,42615"/><polygon points="33650,43755 33940,43755 33940,44045 33650,44045"/><polygon points="40060,28880 40350,28880 40350,29170 40060,29170"/><polygon points="40920,39200 41210,39200 41210,39490 40920,39490"/><polygon points="45650,34900 45940,34900 45940,35190 45650,35190"/><polygon points="45650,37050 45940,37050 45940,37340 45650,37340"/><polygon points="46080,35330 46370,35330 46370,35620 46080,35620"/><polygon points="44790,35330 45080,35330 45080,35620 44790,35620"/><polygon points="49950,33180 50240,33180 50240,33470 49950,33470"/><polygon points="50380,26730 50670,26730 50670,27020 50380,27020"/><polygon points="55540,39630 55830,39630 55830,39920 55540,39920"/><polygon points="55540,26730 55830,26730 55830,27020 55540,27020"/><polygon points="55540,33180 55830,33180 55830,33470 55540,33470"/><polygon points="33610,30600 33900,30600 33900,30890 33610,30890"/><polygon points="34040,30600 34330,30600 34330,30890 34040,30890"/><polygon points="46080,15980 46370,15980 46370,16270 46080,16270"/><polygon points="54250,15980 54540,15980 54540,16270 54250,16270"/><polygon points="56830,26730 57120,26730 57120,27020 56830,27020"/><polygon points="50810,31460 51100,31460 51100,31750 50810,31750"/><polygon points="50810,23290 51100,23290 51100,23580 50810,23580"/><polygon points="51240,47800 51530,47800 51530,48090 51240,48090"/><polygon points="55970,36190 56260,36190 56260,36480 55970,36480"/><polygon points="56400,23290 56690,23290 56690,23580 56400,23580"/><polygon points="56400,31460 56690,31460 56690,31750 56400,31750"/><polygon points="56830,33180 57120,33180 57120,33470 56830,33470"/><polygon points="39630,31460 39920,31460 39920,31750 39630,31750"/><polygon points="46080,30600 46370,30600 46370,30890 46080,30890"/><polygon points="50380,11680 50670,11680 50670,11970 50380,11970"/><polygon points="51670,26730 51960,26730 51960,27020 51670,27020"/><polygon points="44790,39630 45080,39630 45080,39920 44790,39920"/><polygon points="51240,39630 51530,39630 51530,39920 51240,39920"/><polygon points="56830,39630 57120,39630 57120,39920 56830,39920"/><polygon points="28020,29740 28310,29740 28310,30030 28020,30030"/><polygon points="34900,23720 35190,23720 35190,24010 34900,24010"/><polygon points="40920,31460 41210,31460 41210,31750 40920,31750"/><polygon points="21570,19420 21860,19420 21860,19710 21570,19710"/><polygon points="22860,42640 23150,42640 23150,42930 22860,42930"/><polygon points="29310,52960 29600,52960 29600,53250 29310,53250"/><polygon points="46080,39630 46370,39630 46370,39920 46080,39920"/><polygon points="27590,19850 27880,19850 27880,20140 27590,20140"/><polygon points="28450,43070 28740,43070 28740,43360 28450,43360"/><polygon points="34470,42210 34760,42210 34760,42500 34470,42500"/><polygon points="34900,43930 35190,43930 35190,44220 34900,44220"/><polygon points="51240,33180 51530,33180 51530,33470 51240,33470"/><polygon points="22000,29740 22290,29740 22290,30030 22000,30030"/><polygon points="26730,29740 27020,29740 27020,30030 26730,30030"/><polygon points="23720,52960 24010,52960 24010,53250 23720,53250"/><polygon points="28020,52960 28310,52960 28310,53250 28020,53250"/><polygon points="40060,35330 40350,35330 40350,35620 40060,35620"/><polygon points="40060,44790 40350,44790 40350,45080 40060,45080"/><polygon points="40920,49090 41210,49090 41210,49380 40920,49380"/><polygon points="45650,43070 45940,43070 45940,43360 45650,43360"/><polygon points="50810,43930 51100,43930 51100,44220 50810,44220"/><polygon points="21140,29740 21430,29740 21430,30030 21140,30030"/><polygon points="22430,52960 22720,52960 22720,53250 22430,53250"/><polygon points="32750,30600 33040,30600 33040,30890 32750,30890"/><polygon points="33610,43930 33900,43930 33900,44220 33610,44220"/><polygon points="35330,30600 35620,30600 35620,30890 35330,30890"/><polygon points="39630,39200 39920,39200 39920,39490 39630,39490"/><polygon points="39630,49090 39920,49090 39920,49380 39630,49380"/><polygon points="44790,47370 45080,47370 45080,47660 44790,47660"/><polygon points="49950,47800 50240,47800 50240,48090 49950,48090"/><polygon points="44790,30600 45080,30600 45080,30890 44790,30890"/><polygon points="46080,47370 46370,47370 46370,47660 46080,47660"/><polygon points="49950,39630 50240,39630 50240,39920 49950,39920"/></g><g id="L69" fill="rgba(127,127,204,0.6)" stroke="rgba(191,191,255,1)" stroke-width="60"><polygon points="40060,28020 40350,28020 40350,29170 40060,29170"/><polygon points="40920,28020 41210,28020 41210,39490 40920,39490"/><polygon points="40060,26300 40350,26300 40350,28310 40060,28310"/><polygon points="45650,26300 45940,26300 45940,35190 45650,35190"/><polygon points="46080,26730 46370,26730 46370,35620 46080,35620"/><polygon points="45650,34900 45940,34900 45940,37340 45650,37340"/><polygon points="44790,9100 45080,9100 45080,35620 44790,35620"/><polygon points="49950,9100 50240,9100 50240,33470 49950,33470"/><polygon points="55540,9100 55830,9100 55830,33470 55540,33470"/><polygon points="55540,33180 55830,33180 55830,53680 55540,53680"/><polygon points="50380,26730 50670,26730 50670,53680 50380,53680"/><polygon points="34040,8240 34330,8240 34330,30890 34040,30890"/><polygon points="46080,8240 46370,8240 46370,16270 46080,16270"/><polygon points="56830,8240 57120,8240 57120,27020 56830,27020"/><polygon points="54250,8240 54540,8240 54540,16270 54250,16270"/><polygon points="50810,8670 51100,8670 51100,31750 50810,31750"/><polygon points="56400,8670 56690,8670 56690,31750 56400,31750"/><polygon points="56400,31460 56690,31460 56690,44220 56400,44220"/><polygon points="56830,33180 57120,33180 57120,44220 56830,44220"/><polygon points="55970,36190 56260,36190 56260,44220 55970,44220"/><polygon points="55970,43930 56260,43930 56260,53250 55970,53250"/><polygon points="51240,47800 51530,47800 51530,53250 51240,53250"/><polygon points="39630,25870 39920,25870 39920,31750 39630,31750"/><polygon points="46080,25870 46370,25870 46370,30890 46080,30890"/><polygon points="47800,7810 48090,7810 48090,26160 47800,26160"/><polygon points="51670,7810 51960,7810 51960,27020 51670,27020"/><polygon points="50380,7810 50670,7810 50670,11970 50380,11970"/><polygon points="44790,39630 45080,39630 45080,52820 44790,52820"/><polygon points="44360,52530 44650,52530 44650,54110 44360,54110"/><polygon points="51240,39630 51530,39630 51530,54110 51240,54110"/><polygon points="56830,39630 57120,39630 57120,54110 56830,54110"/><polygon points="28020,29740 28310,29740 28310,41640 28020,41640"/><polygon points="34040,38770 34330,38770 34330,41640 34040,41640"/><polygon points="34900,23720 35190,23720 35190,39060 34900,39060"/><polygon points="37480,27590 37770,27590 37770,39060 37480,39060"/><polygon points="40920,27590 41210,27590 41210,31750 40920,31750"/><polygon points="21570,16840 21860,16840 21860,19710 21570,19710"/><polygon points="22860,16840 23150,16840 23150,42930 22860,42930"/><polygon points="22860,42640 23150,42640 23150,64860 22860,64860"/><polygon points="29310,52960 29600,52960 29600,64860 29310,64860"/><polygon points="46080,39630 46370,39630 46370,64860 46080,64860"/><polygon points="27590,19850 27880,19850 27880,42070 27590,42070"/><polygon points="28450,41780 28740,41780 28740,43360 28450,43360"/><polygon points="31460,40920 31750,40920 31750,42070 31460,42070"/><polygon points="34470,40920 34760,40920 34760,42500 34470,42500"/><polygon points="34900,40920 35190,40920 35190,44220 34900,44220"/><polygon points="27590,6950 27880,6950 27880,20140 27590,20140"/><polygon points="51240,6950 51530,6950 51530,33470 51240,33470"/><polygon points="22000,17700 22290,17700 22290,30030 22000,30030"/><polygon points="26730,17700 27020,17700 27020,30030 26730,30030"/><polygon points="23720,52960 24010,52960 24010,64430 23720,64430"/><polygon points="28020,52960 28310,52960 28310,64430 28020,64430"/><polygon points="40060,35330 40350,35330 40350,45080 40060,45080"/><polygon points="40060,44790 40350,44790 40350,54540 40060,54540"/><polygon points="45650,43070 45940,43070 45940,54540 45650,54540"/><polygon points="40920,49090 41210,49090 41210,54540 40920,54540"/><polygon points="50810,43930 51100,43930 51100,54540 50810,54540"/><polygon points="21140,9100 21430,9100 21430,30030 21140,30030"/><polygon points="32750,9100 33040,9100 33040,30890 32750,30890"/><polygon points="32750,30600 33040,30600 33040,38630 32750,38630"/><polygon points="35330,30600 35620,30600 35620,38630 35330,38630"/><polygon points="22430,17270 22720,17270 22720,53250 22430,53250"/><polygon points="33610,38340 33900,38340 33900,44220 33610,44220"/><polygon points="33610,43930 33900,43930 33900,54540 33610,54540"/><polygon points="39630,39200 39920,39200 39920,54540 39630,54540"/><polygon points="39630,54250 39920,54250 39920,54970 39630,54970"/><polygon points="44790,47370 45080,47370 45080,54970 44790,54970"/><polygon points="49950,47800 50240,47800 50240,53250 49950,53250"/><polygon points="44790,26730 45080,26730 45080,30890 44790,30890"/><polygon points="45220,8670 45510,8670 45510,27020 45220,27020"/><polygon points="49950,8670 50240,8670 50240,39920 49950,39920"/><polygon points="45220,26730 45510,26730 45510,52820 45220,52820"/><polygon points="46080,47370 46370,47370 46370,52820 46080,52820"/><polygon points="40060,28880 40350,28880 40350,29170 40060,29170"/><polygon points="40060,28020 40350,28020 40350,28310 40060,28310"/><polygon points="40920,28020 41210,28020 41210,28310 40920,28310"/><polygon points="40920,39200 41210,39200 41210,39490 40920,39490"/><polygon points="40060,26300 40350,26300 40350,26590 40060,26590"/><polygon points="45650,26300 45940,26300 45940,26590 45650,26590"/><polygon points="45650,34900 45940,34900 45940,35190 45650,35190"/><polygon points="45650,26730 45940,26730 45940,27020 45650,27020"/><polygon points="46080,26730 46370,26730 46370,27020 46080,27020"/><polygon points="46080,35330 46370,35330 46370,35620 46080,35620"/><polygon points="45650,37050 45940,37050 45940,37340 45650,37340"/><polygon points="44790,35330 45080,35330 45080,35620 44790,35620"/><polygon points="44790,9100 45080,9100 45080,9390 44790,9390"/><polygon points="49950,9100 50240,9100 50240,9390 49950,9390"/><polygon points="49950,33180 50240,33180 50240,33470 49950,33470"/><polygon points="55540,9100 55830,9100 55830,9390 55540,9390"/><polygon points="55540,33180 55830,33180 55830,33470 55540,33470"/><polygon points="55540,53390 55830,53390 55830,53680 55540,53680"/><polygon points="50380,53390 50670,53390 50670,53680 50380,53680"/><polygon points="50380,26730 50670,26730 50670,27020 50380,27020"/><polygon points="55540,39630 55830,39630 55830,39920 55540,39920"/><polygon points="55540,26730 55830,26730 55830,27020 55540,27020"/><polygon points="34040,30600 34330,30600 34330,30890 34040,30890"/><polygon points="34040,8240 34330,8240 34330,8530 34040,8530"/><polygon points="46080,8240 46370,8240 46370,8530 46080,8530"/><polygon points="46080,15980 46370,15980 46370,16270 46080,16270"/><polygon points="56830,8240 57120,8240 57120,8530 56830,8530"/><polygon points="56830,26730 57120,26730 57120,27020 56830,27020"/><polygon points="54250,8240 54540,8240 54540,8530 54250,8530"/><polygon points="54250,15980 54540,15980 54540,16270 54250,16270"/><polygon points="50810,31460 51100,31460 51100,31750 50810,31750"/><polygon points="50810,8670 51100,8670 51100,8960 50810,8960"/><polygon points="56400,8670 56690,8670 56690,8960 56400,8960"/><polygon points="56400,31460 56690,31460 56690,31750 56400,31750"/><polygon points="56400,43930 56690,43930 56690,44220 56400,44220"/><polygon points="56830,43930 57120,43930 57120,44220 56830,44220"/><polygon points="56830,33180 57120,33180 57120,33470 56830,33470"/><polygon points="50810,23290 51100,23290 51100,23580 50810,23580"/><polygon points="55970,43930 56260,43930 56260,44220 55970,44220"/><polygon points="55970,36190 56260,36190 56260,36480 55970,36480"/><polygon points="56400,23290 56690,23290 56690,23580 56400,23580"/><polygon points="55970,52960 56260,52960 56260,53250 55970,53250"/><polygon points="51240,52960 51530,52960 51530,53250 51240,53250"/><polygon points="51240,47800 51530,47800 51530,48090 51240,48090"/><polygon points="39630,31460 39920,31460 39920,31750 39630,31750"/><polygon points="39630,25870 39920,25870 39920,26160 39630,26160"/><polygon points="46080,25870 46370,25870 46370,26160 46080,26160"/><polygon points="46080,30600 46370,30600 46370,30890 46080,30890"/><polygon points="47800,25870 48090,25870 48090,26160 47800,26160"/><polygon points="47800,7810 48090,7810 48090,8100 47800,8100"/><polygon points="51670,7810 51960,7810 51960,8100 51670,8100"/><polygon points="51670,26730 51960,26730 51960,27020 51670,27020"/><polygon points="50380,7810 50670,7810 50670,8100 50380,8100"/><polygon points="50380,11680 50670,11680 50670,11970 50380,11970"/><polygon points="44790,39630 45080,39630 45080,39920 44790,39920"/><polygon points="44790,52530 45080,52530 45080,52820 44790,52820"/><polygon points="44360,52530 44650,52530 44650,52820 44360,52820"/><polygon points="44360,53820 44650,53820 44650,54110 44360,54110"/><polygon points="51240,53820 51530,53820 51530,54110 51240,54110"/><polygon points="51240,39630 51530,39630 51530,39920 51240,39920"/><polygon points="56830,53820 57120,53820 57120,54110 56830,54110"/><polygon points="56830,39630 57120,39630 57120,39920 56830,39920"/><polygon points="28020,29740 28310,29740 28310,30030 28020,30030"/><polygon points="28020,41350 28310,41350 28310,41640 28020,41640"/><polygon points="34040,41350 34330,41350 34330,41640 34040,41640"/><polygon points="34040,38770 34330,38770 34330,39060 34040,39060"/><polygon points="34900,38770 35190,38770 35190,39060 34900,39060"/><polygon points="34900,23720 35190,23720 35190,24010 34900,24010"/><polygon points="37480,38770 37770,38770 37770,39060 37480,39060"/><polygon points="37480,27590 37770,27590 37770,27880 37480,27880"/><polygon points="40920,27590 41210,27590 41210,27880 40920,27880"/><polygon points="40920,31460 41210,31460 41210,31750 40920,31750"/><polygon points="21570,19420 21860,19420 21860,19710 21570,19710"/><polygon points="21570,16840 21860,16840 21860,17130 21570,17130"/><polygon points="22860,16840 23150,16840 23150,17130 22860,17130"/><polygon points="22860,42640 23150,42640 23150,42930 22860,42930"/><polygon points="22860,64570 23150,64570 23150,64860 22860,64860"/><polygon points="29310,64570 29600,64570 29600,64860 29310,64860"/><polygon points="29310,52960 29600,52960 29600,53250 29310,53250"/><polygon points="46080,64570 46370,64570 46370,64860 46080,64860"/><polygon points="46080,39630 46370,39630 46370,39920 46080,39920"/><polygon points="27590,19850 27880,19850 27880,20140 27590,20140"/><polygon points="27590,41780 27880,41780 27880,42070 27590,42070"/><polygon points="28450,41780 28740,41780 28740,42070 28450,42070"/><polygon points="28450,43070 28740,43070 28740,43360 28450,43360"/><polygon points="31460,41780 31750,41780 31750,42070 31460,42070"/><polygon points="31460,40920 31750,40920 31750,41210 31460,41210"/><polygon points="34470,40920 34760,40920 34760,41210 34470,41210"/><polygon points="34470,42210 34760,42210 34760,42500 34470,42500"/><polygon points="34900,40920 35190,40920 35190,41210 34900,41210"/><polygon points="34900,43930 35190,43930 35190,44220 34900,44220"/><polygon points="27590,6950 27880,6950 27880,7240 27590,7240"/><polygon points="51240,6950 51530,6950 51530,7240 51240,7240"/><polygon points="51240,33180 51530,33180 51530,33470 51240,33470"/><polygon points="22000,29740 22290,29740 22290,30030 22000,30030"/><polygon points="22000,17700 22290,17700 22290,17990 22000,17990"/><polygon points="26730,17700 27020,17700 27020,17990 26730,17990"/><polygon points="26730,29740 27020,29740 27020,30030 26730,30030"/><polygon points="23720,52960 24010,52960 24010,53250 23720,53250"/><polygon points="23720,64140 24010,64140 24010,64430 23720,64430"/><polygon points="28020,64140 28310,64140 28310,64430 28020,64430"/><polygon points="28020,52960 28310,52960 28310,53250 28020,53250"/><polygon points="40060,35330 40350,35330 40350,35620 40060,35620"/><polygon points="40060,44790 40350,44790 40350,45080 40060,45080"/><polygon points="40060,54250 40350,54250 40350,54540 40060,54540"/><polygon points="45650,54250 45940,54250 45940,54540 45650,54540"/><polygon points="45650,43070 45940,43070 45940,43360 45650,43360"/><polygon points="40920,54250 41210,54250 41210,54540 40920,54540"/><polygon points="40920,49090 41210,49090 41210,49380 40920,49380"/><polygon points="50810,54250 51100,54250 51100,54540 50810,54540"/><polygon points="50810,43930 51100,43930 51100,44220 50810,44220"/><polygon points="21140,29740 21430,29740 21430,30030 21140,30030"/><polygon points="21140,9100 21430,9100 21430,9390 21140,9390"/><polygon points="32750,9100 33040,9100 33040,9390 32750,9390"/><polygon points="32750,30600 33040,30600 33040,30890 32750,30890"/><polygon points="32750,38340 33040,38340 33040,38630 32750,38630"/><polygon points="35330,38340 35620,38340 35620,38630 35330,38630"/><polygon points="35330,30600 35620,30600 35620,30890 35330,30890"/><polygon points="21140,17270 21430,17270 21430,17560 21140,17560"/><polygon points="22430,17270 22720,17270 22720,17560 22430,17560"/><polygon points="22430,52960 22720,52960 22720,53250 22430,53250"/><polygon points="33610,38340 33900,38340 33900,38630 33610,38630"/><polygon points="33610,43930 33900,43930 33900,44220 33610,44220"/><polygon points="33610,54250 33900,54250 33900,54540 33610,54540"/><polygon points="39630,54250 39920,54250 39920,54540 39630,54540"/><polygon points="39630,39200 39920,39200 39920,39490 39630,39490"/><polygon points="39630,49090 39920,49090 39920,49380 39630,49380"/><polygon points="39630,54680 39920,54680 39920,54970 39630,54970"/><polygon points="44790,54680 45080,54680 45080,54970 44790,54970"/><polygon points="44790,47370 45080,47370 45080,47660 44790,47660"/><polygon points="44790,52960 45080,52960 45080,53250 44790,53250"/><polygon points="49950,52960 50240,52960 50240,53250 49950,53250"/><polygon points="49950,47800 50240,47800 50240,48090 49950,48090"/><polygon points="44790,30600 45080,30600 45080,30890 44790,30890"/><polygon points="44790,26730 45080,26730 45080,27020 44790,27020"/><polygon points="45220,26730 45510,26730 45510,27020 45220,27020"/><polygon points="45220,8670 45510,8670 45510,8960 45220,8960"/><polygon points="49950,8670 50240,8670 50240,8960 49950,8960"/><polygon points="49950,39630 50240,39630 50240,39920 49950,39920"/><polygon points="45220,52530 45510,52530 45510,52820 45220,52820"/><polygon points="46080,52530 46370,52530 46370,52820 46080,52820"/><polygon points="46080,47370 46370,47370 46370,47660 46080,47660"/></g><g id="L93" fill="rgba(255,204,51,0.6)" stroke="rgba(255,255,76,1)" stroke-width="60"><polygon points="43605,34810 47605,34810 47605,35690 43605,35690"/><polygon points="54465,23270 58465,23270 58465,30130 54465,30130"/><polygon points="49035,23325 53035,23325 53035,30185 49035,30185"/><polygon points="54205,36390 58205,36390 58205,43250 54205,43250"/><polygon points="38280,28965 42280,28965 42280,33925 38280,33925"/><polygon points="43605,36990 47605,36990 47605,41950 43605,41950"/><polygon points="54465,31430 58465,31430 58465,35090 54465,35090"/><polygon points="48905,31570 52905,31570 52905,35230 48905,35230"/></g><g id="L94" fill="rgba(191,89,216,0.6)" stroke="rgba(255,133,255,1)" stroke-width="60"><polygon points="37905,11720 62905,11720 62905,20180 37905,20180"/><polygon points="25595,20085 29595,20085 29595,39545 25595,39545"/><polygon points="26735,43075 30735,43075 30735,62535 26735,62535"/><polygon points="38305,35225 42305,35225 42305,43685 38305,43685"/><polygon points="31355,23975 36855,23975 36855,36935 31355,36935"/><polygon points="43605,43250 47605,43250 47605,51710 43605,51710"/><polygon points="43605,27550 47605,27550 47605,33510 43605,33510"/><polygon points="48905,36530 52905,36530 52905,42490 48905,42490"/><polygon points="38305,44985 42305,44985 42305,53445 38305,53445"/><polygon points="48905,43790 52905,43790 52905,52250 48905,52250"/><polygon points="19700,19580 23700,19580 23700,40040 19700,40040"/><polygon points="21120,42575 25120,42575 25120,63035 21120,63035"/><polygon points="32420,42370 36420,42370 36420,45230 32420,45230"/></g></g></svg>