<svg xmlns="http://www.w3.org/2000/svg" width="900" height="345" viewBox="0 0 900 345">
<text x="0.0" y="14.0" font-family="DejaVu Sans,Helvetica,Arial,sans-serif" font-size="12" fill="#888888" text-anchor="start" font-weight="bold">Feedback loop: every candidate layout tried, die area vs. wirelength</text>
<line x1="60.0" y1="265.0" x2="560.0" y2="265.0" stroke="#88888833" stroke-width="1"/>
<text x="54.0" y="268.5" font-family="DejaVu Sans,Helvetica,Arial,sans-serif" font-size="10" fill="#888888" text-anchor="end" font-weight="normal">0</text>
<line x1="60.0" y1="209.2" x2="560.0" y2="209.2" stroke="#88888833" stroke-width="1"/>
<text x="54.0" y="212.8" font-family="DejaVu Sans,Helvetica,Arial,sans-serif" font-size="10" fill="#888888" text-anchor="end" font-weight="normal">79</text>
<line x1="60.0" y1="153.5" x2="560.0" y2="153.5" stroke="#88888833" stroke-width="1"/>
<text x="54.0" y="157.0" font-family="DejaVu Sans,Helvetica,Arial,sans-serif" font-size="10" fill="#888888" text-anchor="end" font-weight="normal">158</text>
<line x1="60.0" y1="97.8" x2="560.0" y2="97.8" stroke="#88888833" stroke-width="1"/>
<text x="54.0" y="101.2" font-family="DejaVu Sans,Helvetica,Arial,sans-serif" font-size="10" fill="#888888" text-anchor="end" font-weight="normal">236</text>
<line x1="60.0" y1="42.0" x2="560.0" y2="42.0" stroke="#88888833" stroke-width="1"/>
<text x="54.0" y="45.5" font-family="DejaVu Sans,Helvetica,Arial,sans-serif" font-size="10" fill="#888888" text-anchor="end" font-weight="normal">315</text>
<line x1="60.0" y1="42.0" x2="60.0" y2="265.0" stroke="#888888" stroke-width="1"/>
<line x1="60.0" y1="265.0" x2="560.0" y2="265.0" stroke="#888888" stroke-width="1"/>
<text x="60.0" y="279.0" font-family="DejaVu Sans,Helvetica,Arial,sans-serif" font-size="10" fill="#888888" text-anchor="middle" font-weight="normal">0</text>
<text x="185.0" y="279.0" font-family="DejaVu Sans,Helvetica,Arial,sans-serif" font-size="10" fill="#888888" text-anchor="middle" font-weight="normal">61</text>
<text x="310.0" y="279.0" font-family="DejaVu Sans,Helvetica,Arial,sans-serif" font-size="10" fill="#888888" text-anchor="middle" font-weight="normal">123</text>
<text x="435.0" y="279.0" font-family="DejaVu Sans,Helvetica,Arial,sans-serif" font-size="10" fill="#888888" text-anchor="middle" font-weight="normal">185</text>
<text x="560.0" y="279.0" font-family="DejaVu Sans,Helvetica,Arial,sans-serif" font-size="10" fill="#888888" text-anchor="middle" font-weight="normal">247</text>
<text x="310.0" y="295.0" font-family="DejaVu Sans,Helvetica,Arial,sans-serif" font-size="10" fill="#888888" text-anchor="middle" font-weight="normal">routed wirelength (um)</text>
<text x="60.0" y="32.0" font-family="DejaVu Sans,Helvetica,Arial,sans-serif" font-size="10" fill="#888888" text-anchor="start" font-weight="normal">die area (um^2)</text>
<circle cx="106.4" cy="230.1" r="2.0" fill="#3572b0" opacity="0.75"/>
<circle cx="122.7" cy="223.6" r="2.0" fill="#3572b0" opacity="0.25"/>
<circle cx="133.3" cy="217.4" r="2.0" fill="#3572b0" opacity="0.25"/>
<circle cx="144.7" cy="210.3" r="2.0" fill="#3572b0" opacity="0.75"/>
<circle cx="166.8" cy="209.4" r="2.0" fill="#3572b0" opacity="0.25"/>
<circle cx="132.8" cy="217.4" r="2.0" fill="#3572b0" opacity="0.25"/>
<circle cx="131.9" cy="218.5" r="2.0" fill="#3572b0" opacity="0.25"/>
<circle cx="137.2" cy="218.6" r="2.0" fill="#3572b0" opacity="0.25"/>
<circle cx="131.9" cy="215.5" r="2.0" fill="#3572b0" opacity="0.75"/>
<circle cx="140.9" cy="213.1" r="2.0" fill="#3572b0" opacity="0.75"/>
<circle cx="127.5" cy="213.0" r="2.0" fill="#3572b0" opacity="0.25"/>
<circle cx="135.5" cy="215.1" r="2.0" fill="#3572b0" opacity="0.75"/>
<circle cx="135.5" cy="215.1" r="2.0" fill="#3572b0" opacity="0.75"/>
<circle cx="155.2" cy="209.6" r="2.0" fill="#d1663a" opacity="0.25"/>
<circle cx="169.4" cy="186.2" r="2.0" fill="#d1663a" opacity="0.25"/>
<circle cx="152.4" cy="205.3" r="2.0" fill="#d1663a" opacity="0.75"/>
<circle cx="160.6" cy="202.9" r="2.0" fill="#d1663a" opacity="0.25"/>
<circle cx="185.5" cy="206.6" r="2.0" fill="#d1663a" opacity="0.25"/>
<circle cx="124.2" cy="203.0" r="2.0" fill="#d1663a" opacity="0.75"/>
<circle cx="141.9" cy="198.2" r="2.0" fill="#d1663a" opacity="0.25"/>
<circle cx="143.6" cy="203.3" r="2.0" fill="#d1663a" opacity="0.75"/>
<circle cx="142.6" cy="190.9" r="2.0" fill="#d1663a" opacity="0.25"/>
<circle cx="142.7" cy="203.3" r="2.0" fill="#d1663a" opacity="0.75"/>
<circle cx="151.6" cy="198.4" r="2.0" fill="#d1663a" opacity="0.75"/>
<circle cx="185.4" cy="193.3" r="2.0" fill="#d1663a" opacity="0.75"/>
<circle cx="134.8" cy="203.1" r="2.0" fill="#d1663a" opacity="0.25"/>
<circle cx="185.3" cy="194.7" r="2.0" fill="#d1663a" opacity="0.75"/>
<circle cx="188.7" cy="191.4" r="2.0" fill="#d1663a" opacity="0.75"/>
<circle cx="155.2" cy="200.4" r="2.0" fill="#d1663a" opacity="0.75"/>
<circle cx="138.2" cy="194.9" r="2.0" fill="#d1663a" opacity="0.25"/>
<circle cx="124.9" cy="201.6" r="2.0" fill="#d1663a" opacity="0.75"/>
<circle cx="194.0" cy="191.2" r="2.0" fill="#d1663a" opacity="0.75"/>
<circle cx="141.9" cy="196.6" r="2.0" fill="#d1663a" opacity="0.75"/>
<circle cx="128.6" cy="202.2" r="2.0" fill="#d1663a" opacity="0.75"/>
<circle cx="197.7" cy="183.4" r="2.0" fill="#d1663a" opacity="0.25"/>
<circle cx="149.9" cy="206.7" r="2.0" fill="#d1663a" opacity="0.75"/>
<circle cx="174.8" cy="194.5" r="2.0" fill="#d1663a" opacity="0.75"/>
<circle cx="179.0" cy="183.2" r="2.0" fill="#d1663a" opacity="0.75"/>
<circle cx="160.6" cy="185.9" r="2.0" fill="#d1663a" opacity="0.75"/>
<circle cx="146.4" cy="206.7" r="2.0" fill="#d1663a" opacity="0.25"/>
<circle cx="170.3" cy="196.7" r="2.0" fill="#d1663a" opacity="0.75"/>
<circle cx="143.7" cy="204.9" r="2.0" fill="#d1663a" opacity="0.25"/>
<circle cx="171.2" cy="187.8" r="2.0" fill="#d1663a" opacity="0.25"/>
<circle cx="121.4" cy="205.2" r="2.0" fill="#d1663a" opacity="0.25"/>
<circle cx="191.6" cy="190.5" r="2.0" fill="#d1663a" opacity="0.25"/>
<circle cx="150.9" cy="186.3" r="2.0" fill="#d1663a" opacity="0.75"/>
<circle cx="166.6" cy="197.2" r="2.0" fill="#d1663a" opacity="0.75"/>
<circle cx="154.1" cy="193.5" r="2.0" fill="#d1663a" opacity="0.75"/>
<circle cx="156.8" cy="194.7" r="2.0" fill="#d1663a" opacity="0.75"/>
<circle cx="176.7" cy="179.7" r="2.0" fill="#d1663a" opacity="0.75"/>
<circle cx="152.7" cy="194.5" r="2.0" fill="#d1663a" opacity="0.25"/>
<circle cx="165.6" cy="194.0" r="2.0" fill="#d1663a" opacity="0.25"/>
<circle cx="176.5" cy="191.6" r="2.0" fill="#d1663a" opacity="0.25"/>
<circle cx="181.7" cy="191.1" r="2.0" fill="#d1663a" opacity="0.75"/>
<circle cx="198.5" cy="192.5" r="2.0" fill="#d1663a" opacity="0.75"/>
<circle cx="160.6" cy="197.3" r="2.0" fill="#d1663a" opacity="0.75"/>
<circle cx="156.1" cy="196.6" r="2.0" fill="#d1663a" opacity="0.75"/>
<circle cx="145.5" cy="203.0" r="2.0" fill="#d1663a" opacity="0.75"/>
<circle cx="159.7" cy="196.1" r="2.0" fill="#d1663a" opacity="0.75"/>
<circle cx="154.2" cy="201.0" r="2.0" fill="#d1663a" opacity="0.25"/>
<circle cx="135.7" cy="200.4" r="2.0" fill="#d1663a" opacity="0.75"/>
<circle cx="167.1" cy="197.9" r="2.0" fill="#d1663a" opacity="0.75"/>
<circle cx="154.2" cy="204.7" r="2.0" fill="#d1663a" opacity="0.25"/>
<circle cx="141.8" cy="193.8" r="2.0" fill="#d1663a" opacity="0.25"/>
<circle cx="148.9" cy="200.6" r="2.0" fill="#d1663a" opacity="0.75"/>
<circle cx="217.3" cy="187.2" r="2.0" fill="#d1663a" opacity="0.75"/>
<circle cx="125.8" cy="202.0" r="2.0" fill="#d1663a" opacity="0.75"/>
<circle cx="138.4" cy="206.1" r="2.0" fill="#d1663a" opacity="0.25"/>
<circle cx="144.6" cy="198.4" r="2.0" fill="#d1663a" opacity="0.75"/>
<circle cx="138.2" cy="204.0" r="2.0" fill="#d1663a" opacity="0.75"/>
<circle cx="162.2" cy="188.8" r="2.0" fill="#d1663a" opacity="0.25"/>
<circle cx="151.7" cy="192.7" r="2.0" fill="#d1663a" opacity="0.75"/>
<circle cx="193.3" cy="191.1" r="2.0" fill="#d1663a" opacity="0.25"/>
<circle cx="146.4" cy="207.5" r="2.0" fill="#d1663a" opacity="0.75"/>
<circle cx="190.6" cy="185.5" r="2.0" fill="#d1663a" opacity="0.25"/>
<circle cx="124.2" cy="203.9" r="2.0" fill="#d1663a" opacity="0.25"/>
<circle cx="161.4" cy="193.0" r="2.0" fill="#d1663a" opacity="0.75"/>
<circle cx="193.3" cy="188.0" r="2.0" fill="#d1663a" opacity="0.75"/>
<circle cx="156.1" cy="182.2" r="2.0" fill="#d1663a" opacity="0.25"/>
<circle cx="131.3" cy="206.1" r="2.0" fill="#d1663a" opacity="0.25"/>
<circle cx="172.1" cy="202.2" r="2.0" fill="#d1663a" opacity="0.75"/>
<circle cx="142.8" cy="204.7" r="2.0" fill="#d1663a" opacity="0.75"/>
<circle cx="137.4" cy="202.4" r="2.0" fill="#d1663a" opacity="0.75"/>
<circle cx="139.3" cy="208.3" r="2.0" fill="#d1663a" opacity="0.25"/>
<circle cx="140.0" cy="202.7" r="2.0" fill="#d1663a" opacity="0.75"/>
<circle cx="125.0" cy="200.9" r="2.0" fill="#d1663a" opacity="0.75"/>
<circle cx="152.6" cy="209.6" r="2.0" fill="#d1663a" opacity="0.25"/>
<circle cx="120.6" cy="204.6" r="2.0" fill="#d1663a" opacity="0.75"/>
<circle cx="173.8" cy="191.9" r="2.0" fill="#d1663a" opacity="0.25"/>
<circle cx="187.1" cy="202.1" r="2.0" fill="#d1663a" opacity="0.75"/>
<circle cx="121.4" cy="201.8" r="2.0" fill="#d1663a" opacity="0.25"/>
<circle cx="161.4" cy="207.7" r="2.0" fill="#d1663a" opacity="0.75"/>
<circle cx="140.9" cy="193.0" r="2.0" fill="#d1663a" opacity="0.75"/>
<circle cx="136.5" cy="205.6" r="2.0" fill="#d1663a" opacity="0.25"/>
<circle cx="145.6" cy="190.4" r="2.0" fill="#d1663a" opacity="0.75"/>
<circle cx="149.9" cy="190.9" r="2.0" fill="#d1663a" opacity="0.75"/>
<circle cx="142.8" cy="195.1" r="2.0" fill="#d1663a" opacity="0.75"/>
<circle cx="199.6" cy="192.6" r="2.0" fill="#d1663a" opacity="0.75"/>
<circle cx="125.9" cy="195.7" r="2.0" fill="#d1663a" opacity="0.75"/>
<circle cx="153.5" cy="191.3" r="2.0" fill="#d1663a" opacity="0.75"/>
<circle cx="163.1" cy="197.9" r="2.0" fill="#d1663a" opacity="0.75"/>
<circle cx="152.7" cy="194.2" r="2.0" fill="#d1663a" opacity="0.25"/>
<circle cx="121.4" cy="210.3" r="2.0" fill="#d1663a" opacity="0.75"/>
<circle cx="196.7" cy="187.0" r="2.0" fill="#d1663a" opacity="0.75"/>
<circle cx="129.4" cy="195.4" r="2.0" fill="#d1663a" opacity="0.75"/>
<circle cx="166.0" cy="185.2" r="2.0" fill="#d1663a" opacity="0.75"/>
<circle cx="194.3" cy="182.9" r="2.0" fill="#d1663a" opacity="0.75"/>
<circle cx="138.1" cy="192.5" r="2.0" fill="#d1663a" opacity="0.75"/>
<circle cx="160.6" cy="190.4" r="2.0" fill="#d1663a" opacity="0.25"/>
<circle cx="164.9" cy="189.9" r="2.0" fill="#d1663a" opacity="0.25"/>
<circle cx="155.1" cy="188.1" r="2.0" fill="#d1663a" opacity="0.75"/>
<circle cx="208.5" cy="155.7" r="2.0" fill="#d1663a" opacity="0.75"/>
<circle cx="179.2" cy="191.7" r="2.0" fill="#d1663a" opacity="0.75"/>
<circle cx="164.1" cy="188.7" r="2.0" fill="#d1663a" opacity="0.75"/>
<circle cx="167.7" cy="191.3" r="2.0" fill="#d1663a" opacity="0.75"/>
<circle cx="118.7" cy="210.3" r="2.0" fill="#d1663a" opacity="0.75"/>
<circle cx="167.8" cy="191.6" r="2.0" fill="#d1663a" opacity="0.25"/>
<circle cx="148.9" cy="193.2" r="2.0" fill="#d1663a" opacity="0.75"/>
<circle cx="152.4" cy="194.4" r="2.0" fill="#d1663a" opacity="0.25"/>
<circle cx="135.6" cy="194.7" r="2.0" fill="#d1663a" opacity="0.75"/>
<circle cx="144.3" cy="197.5" r="2.0" fill="#d1663a" opacity="0.25"/>
<circle cx="159.7" cy="195.1" r="2.0" fill="#d1663a" opacity="0.75"/>
<circle cx="170.2" cy="194.5" r="2.0" fill="#d1663a" opacity="0.75"/>
<circle cx="215.6" cy="181.3" r="2.0" fill="#d1663a" opacity="0.75"/>
<circle cx="162.3" cy="176.6" r="2.0" fill="#d1663a" opacity="0.25"/>
<circle cx="192.4" cy="182.9" r="2.0" fill="#d1663a" opacity="0.25"/>
<circle cx="149.9" cy="189.4" r="2.0" fill="#d1663a" opacity="0.25"/>
<circle cx="153.2" cy="194.7" r="2.0" fill="#d1663a" opacity="0.75"/>
<circle cx="144.3" cy="199.8" r="2.0" fill="#d1663a" opacity="0.25"/>
<circle cx="165.0" cy="195.7" r="2.0" fill="#d1663a" opacity="0.75"/>
<circle cx="140.9" cy="198.3" r="2.0" fill="#d1663a" opacity="0.75"/>
<circle cx="149.7" cy="193.1" r="2.0" fill="#d1663a" opacity="0.75"/>
<circle cx="159.5" cy="183.6" r="2.0" fill="#d1663a" opacity="0.75"/>
<circle cx="200.4" cy="189.0" r="2.0" fill="#d1663a" opacity="0.75"/>
<circle cx="168.4" cy="193.9" r="2.0" fill="#d1663a" opacity="0.75"/>
<circle cx="168.4" cy="182.6" r="2.0" fill="#d1663a" opacity="0.75"/>
<circle cx="122.3" cy="188.9" r="2.0" fill="#d1663a" opacity="0.25"/>
<circle cx="181.6" cy="179.4" r="2.0" fill="#d1663a" opacity="0.75"/>
<circle cx="156.0" cy="202.4" r="2.0" fill="#d1663a" opacity="0.25"/>
<circle cx="135.6" cy="209.4" r="2.0" fill="#d1663a" opacity="0.25"/>
<circle cx="192.4" cy="191.3" r="2.0" fill="#d1663a" opacity="0.25"/>
<circle cx="161.3" cy="193.0" r="2.0" fill="#d1663a" opacity="0.75"/>
<circle cx="164.0" cy="179.8" r="2.0" fill="#d1663a" opacity="0.25"/>
<circle cx="157.8" cy="201.8" r="2.0" fill="#d1663a" opacity="0.25"/>
<circle cx="145.3" cy="195.8" r="2.0" fill="#d1663a" opacity="0.75"/>
<circle cx="152.3" cy="201.7" r="2.0" fill="#d1663a" opacity="0.25"/>
<circle cx="154.5" cy="202.6" r="2.0" fill="#d1663a" opacity="0.25"/>
<circle cx="203.0" cy="191.9" r="2.0" fill="#d1663a" opacity="0.25"/>
<circle cx="172.9" cy="190.2" r="2.0" fill="#d1663a" opacity="0.75"/>
<circle cx="168.5" cy="190.2" r="2.0" fill="#d1663a" opacity="0.25"/>
<circle cx="156.2" cy="179.9" r="2.0" fill="#d1663a" opacity="0.75"/>
<circle cx="151.7" cy="187.3" r="2.0" fill="#d1663a" opacity="0.75"/>
<circle cx="160.6" cy="190.4" r="2.0" fill="#d1663a" opacity="0.25"/>
<circle cx="171.5" cy="186.9" r="2.0" fill="#d1663a" opacity="0.25"/>
<circle cx="155.2" cy="189.9" r="2.0" fill="#d1663a" opacity="0.75"/>
<circle cx="135.6" cy="193.8" r="2.0" fill="#d1663a" opacity="0.75"/>
<circle cx="172.2" cy="189.9" r="2.0" fill="#d1663a" opacity="0.25"/>
<circle cx="196.1" cy="190.7" r="2.0" fill="#d1663a" opacity="0.25"/>
<circle cx="141.8" cy="193.1" r="2.0" fill="#d1663a" opacity="0.75"/>
<circle cx="143.4" cy="194.4" r="2.0" fill="#d1663a" opacity="0.75"/>
<circle cx="156.1" cy="200.9" r="2.0" fill="#d1663a" opacity="0.25"/>
<circle cx="137.4" cy="202.5" r="2.0" fill="#d1663a" opacity="0.75"/>
<circle cx="158.7" cy="187.8" r="2.0" fill="#d1663a" opacity="0.25"/>
<circle cx="141.7" cy="199.8" r="2.0" fill="#d1663a" opacity="0.25"/>
<circle cx="190.6" cy="193.4" r="2.0" fill="#d1663a" opacity="0.75"/>
<circle cx="196.7" cy="191.4" r="2.0" fill="#d1663a" opacity="0.25"/>
<circle cx="149.9" cy="200.7" r="2.0" fill="#d1663a" opacity="0.75"/>
<circle cx="133.0" cy="202.1" r="2.0" fill="#d1663a" opacity="0.75"/>
<circle cx="171.2" cy="208.3" r="2.0" fill="#d1663a" opacity="0.75"/>
<circle cx="176.5" cy="188.1" r="2.0" fill="#d1663a" opacity="0.75"/>
<circle cx="175.6" cy="197.1" r="2.0" fill="#d1663a" opacity="0.75"/>
<circle cx="197.1" cy="203.9" r="2.0" fill="#d1663a" opacity="0.25"/>
<circle cx="154.2" cy="195.7" r="2.0" fill="#d1663a" opacity="0.75"/>
<circle cx="121.4" cy="206.1" r="2.0" fill="#d1663a" opacity="0.25"/>
<circle cx="149.9" cy="205.3" r="2.0" fill="#d1663a" opacity="0.75"/>
<circle cx="164.1" cy="193.3" r="2.0" fill="#d1663a" opacity="0.75"/>
<circle cx="147.2" cy="195.2" r="2.0" fill="#d1663a" opacity="0.25"/>
<circle cx="157.0" cy="195.8" r="2.0" fill="#d1663a" opacity="0.25"/>
<circle cx="156.0" cy="183.0" r="2.0" fill="#d1663a" opacity="0.75"/>
<circle cx="157.7" cy="193.4" r="2.0" fill="#d1663a" opacity="0.75"/>
<circle cx="148.0" cy="193.4" r="2.0" fill="#d1663a" opacity="0.25"/>
<circle cx="146.4" cy="189.9" r="2.0" fill="#d1663a" opacity="0.75"/>
<circle cx="149.8" cy="184.8" r="2.0" fill="#d1663a" opacity="0.25"/>
<circle cx="160.3" cy="193.3" r="2.0" fill="#d1663a" opacity="0.75"/>
<circle cx="158.7" cy="193.5" r="2.0" fill="#d1663a" opacity="0.75"/>
<circle cx="162.5" cy="177.7" r="2.0" fill="#d1663a" opacity="0.25"/>
<circle cx="141.0" cy="192.5" r="2.0" fill="#d1663a" opacity="0.75"/>
<circle cx="139.3" cy="189.3" r="2.0" fill="#d1663a" opacity="0.75"/>
<circle cx="135.9" cy="181.0" r="2.0" fill="#d1663a" opacity="0.75"/>
<circle cx="133.0" cy="197.3" r="2.0" fill="#d1663a" opacity="0.75"/>
<circle cx="149.7" cy="189.2" r="2.0" fill="#d1663a" opacity="0.75"/>
<circle cx="172.5" cy="185.2" r="2.0" fill="#d1663a" opacity="0.75"/>
<circle cx="191.6" cy="184.5" r="2.0" fill="#d1663a" opacity="0.25"/>
<circle cx="135.5" cy="194.4" r="2.0" fill="#d1663a" opacity="0.25"/>
<circle cx="194.3" cy="195.8" r="2.0" fill="#d1663a" opacity="0.75"/>
<circle cx="129.2" cy="194.6" r="2.0" fill="#d1663a" opacity="0.25"/>
<circle cx="141.8" cy="199.1" r="2.0" fill="#d1663a" opacity="0.25"/>
<circle cx="131.1" cy="195.2" r="2.0" fill="#d1663a" opacity="0.75"/>
<circle cx="133.0" cy="193.8" r="2.0" fill="#d1663a" opacity="0.75"/>
<circle cx="147.2" cy="195.2" r="2.0" fill="#d1663a" opacity="0.75"/>
<circle cx="184.4" cy="158.6" r="2.0" fill="#d1663a" opacity="0.75"/>
<circle cx="161.6" cy="185.0" r="2.0" fill="#d1663a" opacity="0.75"/>
<circle cx="193.3" cy="193.0" r="2.0" fill="#d1663a" opacity="0.25"/>
<circle cx="176.5" cy="169.7" r="2.0" fill="#d1663a" opacity="0.75"/>
<circle cx="162.3" cy="190.4" r="2.0" fill="#d1663a" opacity="0.25"/>
<circle cx="180.1" cy="194.6" r="2.0" fill="#d1663a" opacity="0.75"/>
<circle cx="132.1" cy="199.8" r="2.0" fill="#d1663a" opacity="0.75"/>
<circle cx="159.5" cy="187.4" r="2.0" fill="#d1663a" opacity="0.75"/>
<circle cx="172.1" cy="195.0" r="2.0" fill="#d1663a" opacity="0.75"/>
<circle cx="140.1" cy="197.8" r="2.0" fill="#d1663a" opacity="0.75"/>
<circle cx="116.2" cy="213.0" r="2.0" fill="#d1663a" opacity="0.25"/>
<circle cx="142.6" cy="199.3" r="2.0" fill="#d1663a" opacity="0.75"/>
<circle cx="164.1" cy="179.4" r="2.0" fill="#d1663a" opacity="0.75"/>
<circle cx="312.4" cy="163.2" r="2.0" fill="#2e9e6b" opacity="0.25"/>
<circle cx="336.4" cy="129.9" r="2.0" fill="#2e9e6b" opacity="0.25"/>
<circle cx="366.5" cy="173.3" r="2.0" fill="#2e9e6b" opacity="0.25"/>
<circle cx="480.3" cy="120.3" r="2.0" fill="#2e9e6b" opacity="0.25"/>
<circle cx="358.5" cy="135.0" r="2.0" fill="#2e9e6b" opacity="0.25"/>
<circle cx="318.6" cy="109.6" r="2.0" fill="#2e9e6b" opacity="0.25"/>
<circle cx="323.0" cy="129.8" r="2.0" fill="#2e9e6b" opacity="0.25"/>
<circle cx="391.5" cy="125.3" r="2.0" fill="#2e9e6b" opacity="0.25"/>
<circle cx="325.4" cy="132.7" r="2.0" fill="#2e9e6b" opacity="0.25"/>
<circle cx="354.3" cy="136.1" r="2.0" fill="#2e9e6b" opacity="0.25"/>
<circle cx="270.8" cy="129.3" r="2.0" fill="#2e9e6b" opacity="0.25"/>
<circle cx="338.1" cy="135.6" r="2.0" fill="#2e9e6b" opacity="0.75"/>
<circle cx="349.8" cy="106.9" r="2.0" fill="#2e9e6b" opacity="0.75"/>
<circle cx="513.1" cy="112.1" r="2.0" fill="#2e9e6b" opacity="0.75"/>
<circle cx="398.3" cy="141.7" r="2.0" fill="#2e9e6b" opacity="0.25"/>
<circle cx="428.8" cy="139.7" r="2.0" fill="#2e9e6b" opacity="0.75"/>
<circle cx="422.4" cy="122.5" r="2.0" fill="#2e9e6b" opacity="0.25"/>
<circle cx="332.0" cy="126.4" r="2.0" fill="#2e9e6b" opacity="0.75"/>
<circle cx="271.8" cy="143.7" r="2.0" fill="#2e9e6b" opacity="0.25"/>
<circle cx="435.0" cy="125.9" r="2.0" fill="#2e9e6b" opacity="0.25"/>
<circle cx="409.4" cy="153.0" r="2.0" fill="#2e9e6b" opacity="0.25"/>
<circle cx="317.8" cy="131.5" r="2.0" fill="#2e9e6b" opacity="0.25"/>
<circle cx="360.2" cy="143.9" r="2.0" fill="#2e9e6b" opacity="0.25"/>
<circle cx="326.6" cy="132.6" r="2.0" fill="#2e9e6b" opacity="0.75"/>
<circle cx="283.8" cy="152.1" r="2.0" fill="#2e9e6b" opacity="0.25"/>
<circle cx="322.2" cy="138.4" r="2.0" fill="#2e9e6b" opacity="0.25"/>
<circle cx="317.0" cy="170.8" r="2.0" fill="#2e9e6b" opacity="0.25"/>
<circle cx="372.0" cy="145.3" r="2.0" fill="#2e9e6b" opacity="0.25"/>
<circle cx="295.5" cy="146.7" r="2.0" fill="#2e9e6b" opacity="0.25"/>
<circle cx="403.8" cy="109.6" r="2.0" fill="#2e9e6b" opacity="0.25"/>
<circle cx="426.0" cy="131.2" r="2.0" fill="#2e9e6b" opacity="0.25"/>
<circle cx="363.0" cy="123.9" r="2.0" fill="#2e9e6b" opacity="0.75"/>
<circle cx="460.7" cy="119.9" r="2.0" fill="#2e9e6b" opacity="0.25"/>
<circle cx="374.7" cy="133.3" r="2.0" fill="#2e9e6b" opacity="0.25"/>
<circle cx="378.2" cy="141.8" r="2.0" fill="#2e9e6b" opacity="0.75"/>
<circle cx="401.3" cy="123.7" r="2.0" fill="#2e9e6b" opacity="0.75"/>
<circle cx="437.5" cy="95.4" r="2.0" fill="#2e9e6b" opacity="0.75"/>
<circle cx="279.6" cy="137.0" r="2.0" fill="#2e9e6b" opacity="0.75"/>
<circle cx="351.4" cy="150.6" r="2.0" fill="#2e9e6b" opacity="0.25"/>
<circle cx="420.1" cy="144.5" r="2.0" fill="#2e9e6b" opacity="0.75"/>
<circle cx="505.5" cy="132.7" r="2.0" fill="#2e9e6b" opacity="0.25"/>
<circle cx="299.4" cy="166.9" r="2.0" fill="#2e9e6b" opacity="0.25"/>
<circle cx="328.5" cy="172.1" r="2.0" fill="#2e9e6b" opacity="0.25"/>
<circle cx="356.1" cy="117.9" r="2.0" fill="#2e9e6b" opacity="0.25"/>
<circle cx="374.9" cy="134.7" r="2.0" fill="#2e9e6b" opacity="0.25"/>
<circle cx="338.2" cy="98.9" r="2.0" fill="#2e9e6b" opacity="0.25"/>
<circle cx="432.2" cy="125.7" r="2.0" fill="#2e9e6b" opacity="0.25"/>
<circle cx="455.3" cy="114.5" r="2.0" fill="#2e9e6b" opacity="0.75"/>
<circle cx="392.3" cy="105.3" r="2.0" fill="#2e9e6b" opacity="0.25"/>
<circle cx="330.1" cy="77.4" r="2.0" fill="#2e9e6b" opacity="0.25"/>
<circle cx="360.5" cy="103.3" r="2.0" fill="#2e9e6b" opacity="0.25"/>
<circle cx="462.5" cy="119.5" r="2.0" fill="#2e9e6b" opacity="0.25"/>
<circle cx="455.3" cy="124.3" r="2.0" fill="#2e9e6b" opacity="0.25"/>
<circle cx="375.3" cy="125.1" r="2.0" fill="#2e9e6b" opacity="0.25"/>
<circle cx="297.1" cy="142.0" r="2.0" fill="#2e9e6b" opacity="0.25"/>
<circle cx="406.7" cy="119.2" r="2.0" fill="#2e9e6b" opacity="0.75"/>
<circle cx="241.8" cy="154.6" r="2.0" fill="#2e9e6b" opacity="0.25"/>
<circle cx="338.3" cy="125.1" r="2.0" fill="#2e9e6b" opacity="0.75"/>
<circle cx="345.1" cy="124.8" r="2.0" fill="#2e9e6b" opacity="0.75"/>
<circle cx="402.3" cy="133.7" r="2.0" fill="#2e9e6b" opacity="0.25"/>
<circle cx="388.9" cy="100.4" r="2.0" fill="#2e9e6b" opacity="0.25"/>
<circle cx="388.6" cy="130.3" r="2.0" fill="#2e9e6b" opacity="0.25"/>
<circle cx="389.6" cy="148.4" r="2.0" fill="#2e9e6b" opacity="0.25"/>
<circle cx="405.7" cy="168.1" r="2.0" fill="#2e9e6b" opacity="0.25"/>
<circle cx="427.9" cy="136.3" r="2.0" fill="#2e9e6b" opacity="0.25"/>
<circle cx="350.7" cy="138.9" r="2.0" fill="#2e9e6b" opacity="0.25"/>
<circle cx="350.8" cy="137.0" r="2.0" fill="#2e9e6b" opacity="0.25"/>
<circle cx="389.8" cy="153.6" r="2.0" fill="#2e9e6b" opacity="0.25"/>
<circle cx="326.8" cy="135.4" r="2.0" fill="#2e9e6b" opacity="0.25"/>
<circle cx="385.5" cy="93.2" r="2.0" fill="#2e9e6b" opacity="0.75"/>
<circle cx="350.4" cy="159.2" r="2.0" fill="#2e9e6b" opacity="0.25"/>
<circle cx="392.4" cy="116.5" r="2.0" fill="#2e9e6b" opacity="0.75"/>
<circle cx="419.0" cy="134.3" r="2.0" fill="#2e9e6b" opacity="0.25"/>
<circle cx="487.4" cy="124.4" r="2.0" fill="#2e9e6b" opacity="0.25"/>
<circle cx="371.2" cy="130.0" r="2.0" fill="#2e9e6b" opacity="0.75"/>
<circle cx="376.5" cy="146.6" r="2.0" fill="#2e9e6b" opacity="0.25"/>
<circle cx="402.0" cy="123.4" r="2.0" fill="#2e9e6b" opacity="0.25"/>
<circle cx="359.5" cy="114.2" r="2.0" fill="#2e9e6b" opacity="0.25"/>
<circle cx="378.2" cy="119.9" r="2.0" fill="#2e9e6b" opacity="0.25"/>
<circle cx="365.0" cy="149.2" r="2.0" fill="#2e9e6b" opacity="0.25"/>
<circle cx="445.3" cy="135.1" r="2.0" fill="#2e9e6b" opacity="0.25"/>
<circle cx="305.6" cy="140.7" r="2.0" fill="#2e9e6b" opacity="0.25"/>
<circle cx="389.4" cy="136.9" r="2.0" fill="#2e9e6b" opacity="0.25"/>
<circle cx="384.4" cy="100.2" r="2.0" fill="#2e9e6b" opacity="0.25"/>
<circle cx="454.5" cy="115.3" r="2.0" fill="#2e9e6b" opacity="0.25"/>
<circle cx="400.2" cy="112.4" r="2.0" fill="#2e9e6b" opacity="0.25"/>
<circle cx="472.4" cy="132.4" r="2.0" fill="#2e9e6b" opacity="0.25"/>
<circle cx="383.4" cy="122.0" r="2.0" fill="#2e9e6b" opacity="0.25"/>
<circle cx="337.5" cy="128.9" r="2.0" fill="#2e9e6b" opacity="0.25"/>
<circle cx="449.1" cy="125.9" r="2.0" fill="#2e9e6b" opacity="0.25"/>
<circle cx="469.2" cy="122.3" r="2.0" fill="#2e9e6b" opacity="0.25"/>
<circle cx="306.9" cy="112.8" r="2.0" fill="#2e9e6b" opacity="0.25"/>
<circle cx="354.3" cy="144.5" r="2.0" fill="#2e9e6b" opacity="0.25"/>
<circle cx="362.3" cy="141.8" r="2.0" fill="#2e9e6b" opacity="0.25"/>
<circle cx="338.3" cy="158.7" r="2.0" fill="#2e9e6b" opacity="0.25"/>
<circle cx="378.4" cy="165.9" r="2.0" fill="#2e9e6b" opacity="0.75"/>
<circle cx="343.7" cy="133.9" r="2.0" fill="#2e9e6b" opacity="0.25"/>
<circle cx="320.5" cy="131.1" r="2.0" fill="#2e9e6b" opacity="0.25"/>
<circle cx="471.3" cy="122.6" r="2.0" fill="#2e9e6b" opacity="0.25"/>
<circle cx="405.7" cy="139.4" r="2.0" fill="#2e9e6b" opacity="0.25"/>
<circle cx="488.0" cy="120.3" r="2.0" fill="#2e9e6b" opacity="0.25"/>
<circle cx="305.4" cy="171.9" r="2.0" fill="#2e9e6b" opacity="0.25"/>
<circle cx="331.2" cy="119.9" r="2.0" fill="#2e9e6b" opacity="0.75"/>
<circle cx="400.4" cy="175.2" r="2.0" fill="#2e9e6b" opacity="0.25"/>
<circle cx="342.7" cy="123.7" r="2.0" fill="#2e9e6b" opacity="0.25"/>
<circle cx="331.0" cy="138.7" r="2.0" fill="#2e9e6b" opacity="0.25"/>
<circle cx="442.1" cy="160.8" r="2.0" fill="#2e9e6b" opacity="0.25"/>
<circle cx="345.3" cy="162.8" r="2.0" fill="#2e9e6b" opacity="0.75"/>
<circle cx="358.6" cy="106.6" r="2.0" fill="#2e9e6b" opacity="0.25"/>
<circle cx="433.0" cy="138.9" r="2.0" fill="#2e9e6b" opacity="0.25"/>
<circle cx="347.2" cy="139.0" r="2.0" fill="#2e9e6b" opacity="0.25"/>
<circle cx="433.3" cy="138.7" r="2.0" fill="#2e9e6b" opacity="0.25"/>
<circle cx="407.6" cy="157.5" r="2.0" fill="#2e9e6b" opacity="0.25"/>
<circle cx="381.0" cy="178.3" r="2.0" fill="#2e9e6b" opacity="0.25"/>
<circle cx="323.9" cy="87.8" r="2.0" fill="#2e9e6b" opacity="0.25"/>
<circle cx="459.7" cy="126.7" r="2.0" fill="#2e9e6b" opacity="0.25"/>
<circle cx="392.4" cy="122.1" r="2.0" fill="#2e9e6b" opacity="0.25"/>
<circle cx="331.2" cy="131.6" r="2.0" fill="#2e9e6b" opacity="0.25"/>
<circle cx="401.4" cy="129.1" r="2.0" fill="#2e9e6b" opacity="0.25"/>
<circle cx="331.4" cy="90.4" r="2.0" fill="#2e9e6b" opacity="0.25"/>
<circle cx="435.0" cy="138.6" r="2.0" fill="#2e9e6b" opacity="0.25"/>
<circle cx="351.7" cy="133.6" r="2.0" fill="#2e9e6b" opacity="0.25"/>
<circle cx="377.2" cy="100.1" r="2.0" fill="#2e9e6b" opacity="0.25"/>
<circle cx="385.3" cy="132.9" r="2.0" fill="#2e9e6b" opacity="0.25"/>
<circle cx="354.1" cy="118.4" r="2.0" fill="#2e9e6b" opacity="0.25"/>
<circle cx="443.7" cy="137.0" r="2.0" fill="#2e9e6b" opacity="0.25"/>
<circle cx="485.6" cy="92.4" r="2.0" fill="#2e9e6b" opacity="0.25"/>
<circle cx="447.5" cy="109.1" r="2.0" fill="#2e9e6b" opacity="0.25"/>
<circle cx="347.7" cy="140.9" r="2.0" fill="#2e9e6b" opacity="0.25"/>
<circle cx="369.3" cy="143.1" r="2.0" fill="#2e9e6b" opacity="0.25"/>
<circle cx="295.6" cy="147.9" r="2.0" fill="#2e9e6b" opacity="0.25"/>
<circle cx="435.5" cy="124.1" r="2.0" fill="#2e9e6b" opacity="0.25"/>
<circle cx="395.2" cy="139.8" r="2.0" fill="#2e9e6b" opacity="0.25"/>
<circle cx="369.2" cy="120.8" r="2.0" fill="#2e9e6b" opacity="0.25"/>
<circle cx="401.4" cy="144.9" r="2.0" fill="#2e9e6b" opacity="0.25"/>
<circle cx="380.8" cy="121.4" r="2.0" fill="#2e9e6b" opacity="0.25"/>
<circle cx="337.3" cy="146.7" r="2.0" fill="#2e9e6b" opacity="0.25"/>
<circle cx="324.4" cy="91.1" r="2.0" fill="#2e9e6b" opacity="0.25"/>
<circle cx="306.1" cy="138.3" r="2.0" fill="#2e9e6b" opacity="0.75"/>
<circle cx="310.6" cy="147.8" r="2.0" fill="#2e9e6b" opacity="0.25"/>
<circle cx="372.8" cy="153.9" r="2.0" fill="#2e9e6b" opacity="0.25"/>
<circle cx="263.5" cy="154.0" r="2.0" fill="#2e9e6b" opacity="0.25"/>
<circle cx="319.6" cy="127.8" r="2.0" fill="#2e9e6b" opacity="0.75"/>
<circle cx="310.8" cy="124.6" r="2.0" fill="#2e9e6b" opacity="0.75"/>
<circle cx="397.8" cy="128.3" r="2.0" fill="#2e9e6b" opacity="0.25"/>
<circle cx="254.7" cy="129.0" r="2.0" fill="#2e9e6b" opacity="0.25"/>
<circle cx="323.0" cy="111.8" r="2.0" fill="#2e9e6b" opacity="0.75"/>
<circle cx="361.2" cy="166.7" r="2.0" fill="#2e9e6b" opacity="0.25"/>
<circle cx="477.0" cy="154.4" r="2.0" fill="#2e9e6b" opacity="0.25"/>
<circle cx="286.7" cy="157.3" r="2.0" fill="#2e9e6b" opacity="0.25"/>
<circle cx="336.8" cy="104.7" r="2.0" fill="#2e9e6b" opacity="0.25"/>
<circle cx="362.3" cy="126.3" r="2.0" fill="#2e9e6b" opacity="0.75"/>
<circle cx="453.8" cy="120.8" r="2.0" fill="#2e9e6b" opacity="0.25"/>
<circle cx="371.3" cy="126.4" r="2.0" fill="#2e9e6b" opacity="0.25"/>
<circle cx="324.0" cy="155.8" r="2.0" fill="#2e9e6b" opacity="0.25"/>
<circle cx="406.5" cy="109.6" r="2.0" fill="#2e9e6b" opacity="0.25"/>
<circle cx="433.1" cy="132.0" r="2.0" fill="#2e9e6b" opacity="0.25"/>
<circle cx="425.0" cy="146.3" r="2.0" fill="#2e9e6b" opacity="0.25"/>
<circle cx="448.4" cy="134.2" r="2.0" fill="#2e9e6b" opacity="0.25"/>
<circle cx="443.9" cy="113.4" r="2.0" fill="#2e9e6b" opacity="0.75"/>
<circle cx="292.1" cy="137.6" r="2.0" fill="#2e9e6b" opacity="0.25"/>
<circle cx="349.8" cy="116.0" r="2.0" fill="#2e9e6b" opacity="0.25"/>
<circle cx="303.5" cy="142.7" r="2.0" fill="#2e9e6b" opacity="0.25"/>
<circle cx="381.6" cy="130.3" r="2.0" fill="#2e9e6b" opacity="0.25"/>
<circle cx="339.0" cy="137.7" r="2.0" fill="#2e9e6b" opacity="0.25"/>
<circle cx="406.6" cy="122.0" r="2.0" fill="#2e9e6b" opacity="0.25"/>
<circle cx="360.2" cy="130.5" r="2.0" fill="#2e9e6b" opacity="0.25"/>
<circle cx="334.9" cy="150.4" r="2.0" fill="#2e9e6b" opacity="0.75"/>
<circle cx="383.4" cy="129.2" r="2.0" fill="#2e9e6b" opacity="0.75"/>
<circle cx="423.4" cy="127.2" r="2.0" fill="#2e9e6b" opacity="0.75"/>
<circle cx="342.7" cy="139.4" r="2.0" fill="#2e9e6b" opacity="0.25"/>
<circle cx="482.9" cy="125.4" r="2.0" fill="#2e9e6b" opacity="0.75"/>
<circle cx="451.0" cy="130.2" r="2.0" fill="#2e9e6b" opacity="0.25"/>
<circle cx="331.8" cy="169.0" r="2.0" fill="#2e9e6b" opacity="0.25"/>
<circle cx="368.5" cy="140.9" r="2.0" fill="#2e9e6b" opacity="0.25"/>
<circle cx="304.4" cy="104.3" r="2.0" fill="#2e9e6b" opacity="0.25"/>
<circle cx="427.8" cy="169.1" r="2.0" fill="#2e9e6b" opacity="0.25"/>
<circle cx="395.8" cy="140.9" r="2.0" fill="#2e9e6b" opacity="0.25"/>
<circle cx="307.0" cy="146.0" r="2.0" fill="#2e9e6b" opacity="0.25"/>
<circle cx="379.9" cy="79.4" r="2.0" fill="#2e9e6b" opacity="0.75"/>
<circle cx="322.4" cy="153.0" r="2.0" fill="#2e9e6b" opacity="0.25"/>
<circle cx="307.8" cy="145.8" r="2.0" fill="#2e9e6b" opacity="0.25"/>
<circle cx="286.9" cy="152.9" r="2.0" fill="#2e9e6b" opacity="0.25"/>
<circle cx="378.7" cy="150.7" r="2.0" fill="#2e9e6b" opacity="0.25"/>
<circle cx="267.2" cy="167.4" r="2.0" fill="#2e9e6b" opacity="0.25"/>
<circle cx="397.8" cy="123.6" r="2.0" fill="#2e9e6b" opacity="0.25"/>
<circle cx="400.4" cy="136.2" r="2.0" fill="#2e9e6b" opacity="0.75"/>
<circle cx="428.9" cy="137.0" r="2.0" fill="#2e9e6b" opacity="0.25"/>
<circle cx="392.1" cy="142.2" r="2.0" fill="#2e9e6b" opacity="0.25"/>
<circle cx="469.4" cy="122.3" r="2.0" fill="#2e9e6b" opacity="0.25"/>
<circle cx="351.9" cy="144.4" r="2.0" fill="#2e9e6b" opacity="0.25"/>
<circle cx="397.9" cy="150.0" r="2.0" fill="#2e9e6b" opacity="0.25"/>
<circle cx="308.9" cy="132.5" r="2.0" fill="#2e9e6b" opacity="0.25"/>
<circle cx="405.7" cy="113.5" r="2.0" fill="#2e9e6b" opacity="0.25"/>
<circle cx="397.6" cy="88.7" r="2.0" fill="#2e9e6b" opacity="0.75"/>
<circle cx="480.1" cy="117.7" r="2.0" fill="#2e9e6b" opacity="0.25"/>
<circle cx="429.7" cy="144.0" r="2.0" fill="#2e9e6b" opacity="0.75"/>
<circle cx="458.7" cy="129.0" r="2.0" fill="#2e9e6b" opacity="0.25"/>
<circle cx="324.8" cy="55.2" r="2.0" fill="#2e9e6b" opacity="0.25"/>
<circle cx="469.6" cy="111.4" r="2.0" fill="#2e9e6b" opacity="0.25"/>
<circle cx="225.2" cy="187.8" r="2.0" fill="#9b59b6" opacity="0.25"/>
<circle cx="324.7" cy="168.4" r="2.0" fill="#9b59b6" opacity="0.25"/>
<circle cx="243.8" cy="176.2" r="2.0" fill="#9b59b6" opacity="0.25"/>
<circle cx="319.2" cy="139.9" r="2.0" fill="#9b59b6" opacity="0.25"/>
<circle cx="326.4" cy="154.8" r="2.0" fill="#9b59b6" opacity="0.25"/>
<circle cx="391.1" cy="151.5" r="2.0" fill="#9b59b6" opacity="0.25"/>
<circle cx="270.4" cy="152.1" r="2.0" fill="#9b59b6" opacity="0.25"/>
<circle cx="321.1" cy="171.2" r="2.0" fill="#9b59b6" opacity="0.25"/>
<circle cx="309.5" cy="158.8" r="2.0" fill="#9b59b6" opacity="0.25"/>
<circle cx="279.6" cy="135.4" r="2.0" fill="#9b59b6" opacity="0.25"/>
<circle cx="225.1" cy="161.5" r="2.0" fill="#9b59b6" opacity="0.25"/>
<circle cx="248.3" cy="149.1" r="2.0" fill="#9b59b6" opacity="0.25"/>
<circle cx="251.0" cy="169.6" r="2.0" fill="#9b59b6" opacity="0.25"/>
<circle cx="218.1" cy="152.2" r="2.0" fill="#9b59b6" opacity="0.25"/>
<circle cx="260.7" cy="153.8" r="2.0" fill="#9b59b6" opacity="0.75"/>
<circle cx="335.3" cy="159.6" r="2.0" fill="#9b59b6" opacity="0.25"/>
<circle cx="451.6" cy="138.6" r="2.0" fill="#9b59b6" opacity="0.25"/>
<circle cx="267.0" cy="133.6" r="2.0" fill="#9b59b6" opacity="0.25"/>
<circle cx="263.4" cy="95.9" r="2.0" fill="#9b59b6" opacity="0.25"/>
<circle cx="298.0" cy="156.7" r="2.0" fill="#9b59b6" opacity="0.25"/>
<circle cx="240.5" cy="151.1" r="2.0" fill="#9b59b6" opacity="0.25"/>
<circle cx="341.5" cy="140.8" r="2.0" fill="#9b59b6" opacity="0.25"/>
<circle cx="330.9" cy="89.8" r="2.0" fill="#9b59b6" opacity="0.25"/>
<circle cx="260.0" cy="145.1" r="2.0" fill="#9b59b6" opacity="0.75"/>
<circle cx="203.2" cy="163.6" r="2.0" fill="#9b59b6" opacity="0.25"/>
<circle cx="281.2" cy="104.3" r="2.0" fill="#9b59b6" opacity="0.25"/>
<circle cx="275.0" cy="152.9" r="2.0" fill="#9b59b6" opacity="0.25"/>
<circle cx="335.2" cy="156.9" r="2.0" fill="#9b59b6" opacity="0.25"/>
<circle cx="317.6" cy="164.8" r="2.0" fill="#9b59b6" opacity="0.25"/>
<circle cx="272.4" cy="155.2" r="2.0" fill="#9b59b6" opacity="0.25"/>
<circle cx="237.1" cy="151.2" r="2.0" fill="#9b59b6" opacity="0.25"/>
<circle cx="316.0" cy="175.5" r="2.0" fill="#9b59b6" opacity="0.25"/>
<circle cx="344.2" cy="143.3" r="2.0" fill="#9b59b6" opacity="0.75"/>
<circle cx="336.6" cy="122.0" r="2.0" fill="#9b59b6" opacity="0.75"/>
<circle cx="438.3" cy="143.7" r="2.0" fill="#9b59b6" opacity="0.75"/>
<circle cx="260.9" cy="152.0" r="2.0" fill="#9b59b6" opacity="0.25"/>
<circle cx="263.4" cy="151.4" r="2.0" fill="#9b59b6" opacity="0.75"/>
<circle cx="267.0" cy="165.1" r="2.0" fill="#9b59b6" opacity="0.25"/>
<circle cx="400.2" cy="132.2" r="2.0" fill="#9b59b6" opacity="0.25"/>
<circle cx="379.7" cy="144.7" r="2.0" fill="#9b59b6" opacity="0.25"/>
<circle cx="297.9" cy="164.5" r="2.0" fill="#9b59b6" opacity="0.25"/>
<circle cx="318.5" cy="151.1" r="2.0" fill="#9b59b6" opacity="0.25"/>
<circle cx="306.9" cy="142.0" r="2.0" fill="#9b59b6" opacity="0.25"/>
<circle cx="233.2" cy="166.0" r="2.0" fill="#9b59b6" opacity="0.25"/>
<circle cx="244.1" cy="171.0" r="2.0" fill="#9b59b6" opacity="0.25"/>
<circle cx="267.1" cy="135.3" r="2.0" fill="#9b59b6" opacity="0.75"/>
<circle cx="296.5" cy="172.4" r="2.0" fill="#9b59b6" opacity="0.25"/>
<circle cx="280.8" cy="126.6" r="2.0" fill="#9b59b6" opacity="0.75"/>
<circle cx="244.0" cy="175.0" r="2.0" fill="#9b59b6" opacity="0.25"/>
<circle cx="356.6" cy="128.1" r="2.0" fill="#9b59b6" opacity="0.25"/>
<circle cx="291.3" cy="148.9" r="2.0" fill="#9b59b6" opacity="0.25"/>
<circle cx="373.6" cy="108.4" r="2.0" fill="#9b59b6" opacity="0.25"/>
<circle cx="282.2" cy="149.9" r="2.0" fill="#9b59b6" opacity="0.25"/>
<circle cx="392.9" cy="133.6" r="2.0" fill="#9b59b6" opacity="0.25"/>
<circle cx="276.9" cy="172.5" r="2.0" fill="#9b59b6" opacity="0.75"/>
<circle cx="275.7" cy="163.6" r="2.0" fill="#9b59b6" opacity="0.25"/>
<circle cx="341.7" cy="126.6" r="2.0" fill="#9b59b6" opacity="0.75"/>
<circle cx="325.7" cy="152.6" r="2.0" fill="#9b59b6" opacity="0.25"/>
<circle cx="211.0" cy="177.3" r="2.0" fill="#9b59b6" opacity="0.25"/>
<circle cx="309.6" cy="146.1" r="2.0" fill="#9b59b6" opacity="0.25"/>
<circle cx="308.6" cy="159.9" r="2.0" fill="#9b59b6" opacity="0.25"/>
<circle cx="267.9" cy="151.0" r="2.0" fill="#9b59b6" opacity="0.25"/>
<circle cx="239.3" cy="175.8" r="2.0" fill="#9b59b6" opacity="0.25"/>
<circle cx="244.6" cy="168.5" r="2.0" fill="#9b59b6" opacity="0.25"/>
<circle cx="265.2" cy="167.9" r="2.0" fill="#9b59b6" opacity="0.25"/>
<circle cx="282.1" cy="155.1" r="2.0" fill="#9b59b6" opacity="0.25"/>
<circle cx="367.2" cy="150.2" r="2.0" fill="#9b59b6" opacity="0.25"/>
<circle cx="241.6" cy="178.8" r="2.0" fill="#9b59b6" opacity="0.25"/>
<circle cx="246.7" cy="145.2" r="2.0" fill="#9b59b6" opacity="0.25"/>
<circle cx="257.2" cy="137.9" r="2.0" fill="#9b59b6" opacity="0.25"/>
<circle cx="255.8" cy="155.0" r="2.0" fill="#9b59b6" opacity="0.25"/>
<circle cx="266.1" cy="153.3" r="2.0" fill="#9b59b6" opacity="0.25"/>
<circle cx="274.1" cy="158.0" r="2.0" fill="#9b59b6" opacity="0.25"/>
<circle cx="343.4" cy="132.9" r="2.0" fill="#9b59b6" opacity="0.25"/>
<circle cx="368.3" cy="143.0" r="2.0" fill="#9b59b6" opacity="0.25"/>
<circle cx="346.9" cy="149.1" r="2.0" fill="#9b59b6" opacity="0.25"/>
<circle cx="296.4" cy="139.6" r="2.0" fill="#9b59b6" opacity="0.75"/>
<circle cx="326.7" cy="131.8" r="2.0" fill="#9b59b6" opacity="0.25"/>
<circle cx="270.5" cy="151.5" r="2.0" fill="#9b59b6" opacity="0.25"/>
<circle cx="344.2" cy="152.9" r="2.0" fill="#9b59b6" opacity="0.25"/>
<circle cx="333.8" cy="140.9" r="2.0" fill="#9b59b6" opacity="0.75"/>
<circle cx="301.6" cy="130.9" r="2.0" fill="#9b59b6" opacity="0.25"/>
<circle cx="268.7" cy="140.2" r="2.0" fill="#9b59b6" opacity="0.25"/>
<circle cx="262.5" cy="147.5" r="2.0" fill="#9b59b6" opacity="0.25"/>
<circle cx="327.3" cy="139.1" r="2.0" fill="#9b59b6" opacity="0.25"/>
<circle cx="254.5" cy="172.4" r="2.0" fill="#9b59b6" opacity="0.25"/>
<circle cx="250.9" cy="119.7" r="2.0" fill="#9b59b6" opacity="0.75"/>
<circle cx="286.5" cy="151.0" r="2.0" fill="#9b59b6" opacity="0.75"/>
<circle cx="209.3" cy="171.7" r="2.0" fill="#9b59b6" opacity="0.25"/>
<circle cx="319.3" cy="157.7" r="2.0" fill="#9b59b6" opacity="0.25"/>
<circle cx="371.7" cy="146.6" r="2.0" fill="#9b59b6" opacity="0.25"/>
<circle cx="373.5" cy="142.0" r="2.0" fill="#9b59b6" opacity="0.25"/>
<circle cx="307.7" cy="164.2" r="2.0" fill="#9b59b6" opacity="0.25"/>
<circle cx="268.9" cy="141.0" r="2.0" fill="#9b59b6" opacity="0.25"/>
<circle cx="234.9" cy="173.2" r="2.0" fill="#9b59b6" opacity="0.25"/>
<circle cx="276.9" cy="153.4" r="2.0" fill="#9b59b6" opacity="0.25"/>
<circle cx="359.4" cy="125.3" r="2.0" fill="#9b59b6" opacity="0.25"/>
<circle cx="282.9" cy="153.5" r="2.0" fill="#9b59b6" opacity="0.25"/>
<circle cx="346.9" cy="125.9" r="2.0" fill="#9b59b6" opacity="0.25"/>
<circle cx="236.9" cy="141.3" r="2.0" fill="#9b59b6" opacity="0.25"/>
<circle cx="252.9" cy="151.5" r="2.0" fill="#9b59b6" opacity="0.25"/>
<circle cx="358.5" cy="152.3" r="2.0" fill="#9b59b6" opacity="0.25"/>
<circle cx="260.9" cy="120.4" r="2.0" fill="#9b59b6" opacity="0.25"/>
<circle cx="303.7" cy="150.1" r="2.0" fill="#9b59b6" opacity="0.25"/>
<circle cx="365.5" cy="154.6" r="2.0" fill="#9b59b6" opacity="0.25"/>
<circle cx="536.2" cy="78.8" r="2.0" fill="#9b59b6" opacity="0.75"/>
<circle cx="252.6" cy="164.9" r="2.0" fill="#9b59b6" opacity="0.25"/>
<circle cx="354.7" cy="121.0" r="2.0" fill="#9b59b6" opacity="0.25"/>
<circle cx="330.0" cy="139.1" r="2.0" fill="#9b59b6" opacity="0.25"/>
<circle cx="261.6" cy="142.7" r="2.0" fill="#9b59b6" opacity="0.25"/>
<circle cx="259.7" cy="184.9" r="2.0" fill="#9b59b6" opacity="0.25"/>
<circle cx="311.5" cy="144.0" r="2.0" fill="#9b59b6" opacity="0.25"/>
<circle cx="342.5" cy="132.0" r="2.0" fill="#9b59b6" opacity="0.25"/>
<circle cx="298.2" cy="96.3" r="2.0" fill="#9b59b6" opacity="0.25"/>
<circle cx="274.1" cy="146.2" r="2.0" fill="#9b59b6" opacity="0.25"/>
<circle cx="247.4" cy="188.9" r="2.0" fill="#9b59b6" opacity="0.25"/>
<circle cx="231.6" cy="148.9" r="2.0" fill="#9b59b6" opacity="0.25"/>
<circle cx="399.4" cy="90.9" r="2.0" fill="#9b59b6" opacity="0.75"/>
<circle cx="248.2" cy="160.5" r="2.0" fill="#9b59b6" opacity="0.25"/>
<circle cx="328.5" cy="125.4" r="2.0" fill="#9b59b6" opacity="0.25"/>
<circle cx="377.0" cy="138.4" r="2.0" fill="#9b59b6" opacity="0.25"/>
<circle cx="293.6" cy="158.9" r="2.0" fill="#9b59b6" opacity="0.25"/>
<circle cx="292.8" cy="167.8" r="2.0" fill="#9b59b6" opacity="0.25"/>
<circle cx="281.2" cy="125.5" r="2.0" fill="#9b59b6" opacity="0.75"/>
<circle cx="330.2" cy="122.4" r="2.0" fill="#9b59b6" opacity="0.25"/>
<circle cx="244.1" cy="130.7" r="2.0" fill="#9b59b6" opacity="0.25"/>
<circle cx="231.3" cy="170.2" r="2.0" fill="#9b59b6" opacity="0.25"/>
<circle cx="344.2" cy="172.2" r="2.0" fill="#9b59b6" opacity="0.25"/>
<circle cx="315.0" cy="126.0" r="2.0" fill="#9b59b6" opacity="0.25"/>
<circle cx="255.5" cy="165.4" r="2.0" fill="#9b59b6" opacity="0.25"/>
<circle cx="249.3" cy="183.3" r="2.0" fill="#9b59b6" opacity="0.25"/>
<circle cx="361.1" cy="123.4" r="2.0" fill="#9b59b6" opacity="0.25"/>
<circle cx="330.9" cy="151.8" r="2.0" fill="#9b59b6" opacity="0.25"/>
<circle cx="302.8" cy="141.2" r="2.0" fill="#9b59b6" opacity="0.75"/>
<circle cx="268.0" cy="153.9" r="2.0" fill="#9b59b6" opacity="0.25"/>
<circle cx="363.0" cy="132.8" r="2.0" fill="#9b59b6" opacity="0.25"/>
<circle cx="305.0" cy="138.2" r="2.0" fill="#9b59b6" opacity="0.25"/>
<circle cx="319.3" cy="111.1" r="2.0" fill="#9b59b6" opacity="0.25"/>
<circle cx="262.5" cy="152.8" r="2.0" fill="#9b59b6" opacity="0.25"/>
<circle cx="237.0" cy="178.5" r="2.0" fill="#9b59b6" opacity="0.25"/>
<circle cx="314.4" cy="134.9" r="2.0" fill="#9b59b6" opacity="0.25"/>
<circle cx="306.9" cy="135.5" r="2.0" fill="#9b59b6" opacity="0.25"/>
<circle cx="363.0" cy="151.8" r="2.0" fill="#9b59b6" opacity="0.25"/>
<circle cx="303.4" cy="166.4" r="2.0" fill="#9b59b6" opacity="0.25"/>
<circle cx="330.9" cy="113.9" r="2.0" fill="#9b59b6" opacity="0.25"/>
<circle cx="283.1" cy="130.6" r="2.0" fill="#9b59b6" opacity="0.25"/>
<circle cx="427.6" cy="52.6" r="2.0" fill="#9b59b6" opacity="0.25"/>
<circle cx="277.6" cy="145.2" r="2.0" fill="#9b59b6" opacity="0.25"/>
<circle cx="294.6" cy="107.9" r="2.0" fill="#9b59b6" opacity="0.25"/>
<circle cx="252.8" cy="149.1" r="2.0" fill="#9b59b6" opacity="0.25"/>
<circle cx="328.2" cy="135.4" r="2.0" fill="#9b59b6" opacity="0.25"/>
<circle cx="447.1" cy="116.6" r="2.0" fill="#9b59b6" opacity="0.25"/>
<circle cx="377.0" cy="159.4" r="2.0" fill="#9b59b6" opacity="0.25"/>
<circle cx="395.7" cy="150.2" r="2.0" fill="#9b59b6" opacity="0.25"/>
<circle cx="244.9" cy="174.6" r="2.0" fill="#9b59b6" opacity="0.25"/>
<circle cx="381.5" cy="142.5" r="2.0" fill="#9b59b6" opacity="0.25"/>
<circle cx="191.5" cy="158.2" r="2.0" fill="#9b59b6" opacity="0.25"/>
<circle cx="484.8" cy="112.5" r="2.0" fill="#9b59b6" opacity="0.25"/>
<circle cx="364.6" cy="133.2" r="2.0" fill="#9b59b6" opacity="0.25"/>
<circle cx="203.2" cy="169.7" r="2.0" fill="#9b59b6" opacity="0.25"/>
<circle cx="286.4" cy="138.0" r="2.0" fill="#9b59b6" opacity="0.25"/>
<circle cx="344.2" cy="145.0" r="2.0" fill="#9b59b6" opacity="0.25"/>
<circle cx="221.8" cy="165.0" r="2.0" fill="#9b59b6" opacity="0.25"/>
<circle cx="280.3" cy="115.7" r="2.0" fill="#9b59b6" opacity="0.25"/>
<circle cx="335.3" cy="112.8" r="2.0" fill="#9b59b6" opacity="0.25"/>
<circle cx="339.0" cy="98.0" r="2.0" fill="#9b59b6" opacity="0.25"/>
<circle cx="269.7" cy="152.0" r="2.0" fill="#9b59b6" opacity="0.25"/>
<circle cx="358.4" cy="149.8" r="2.0" fill="#9b59b6" opacity="0.25"/>
<circle cx="300.6" cy="134.3" r="2.0" fill="#9b59b6" opacity="0.25"/>
<circle cx="345.0" cy="91.7" r="2.0" fill="#9b59b6" opacity="0.25"/>
<circle cx="176.4" cy="180.8" r="2.0" fill="#9b59b6" opacity="0.25"/>
<circle cx="350.4" cy="153.4" r="2.0" fill="#9b59b6" opacity="0.25"/>
<circle cx="271.4" cy="141.7" r="2.0" fill="#9b59b6" opacity="0.25"/>
<circle cx="246.8" cy="170.2" r="2.0" fill="#9b59b6" opacity="0.75"/>
<circle cx="226.0" cy="143.9" r="2.0" fill="#9b59b6" opacity="0.25"/>
<circle cx="360.2" cy="133.8" r="2.0" fill="#9b59b6" opacity="0.25"/>
<circle cx="267.1" cy="150.1" r="2.0" fill="#9b59b6" opacity="0.25"/>
<circle cx="391.4" cy="117.3" r="2.0" fill="#9b59b6" opacity="0.25"/>
<circle cx="253.6" cy="182.2" r="2.0" fill="#9b59b6" opacity="0.25"/>
<circle cx="375.5" cy="129.3" r="2.0" fill="#9b59b6" opacity="0.25"/>
<circle cx="294.6" cy="138.9" r="2.0" fill="#9b59b6" opacity="0.25"/>
<circle cx="247.3" cy="181.5" r="2.0" fill="#9b59b6" opacity="0.25"/>
<circle cx="307.8" cy="125.9" r="2.0" fill="#9b59b6" opacity="0.25"/>
<circle cx="342.5" cy="146.6" r="2.0" fill="#9b59b6" opacity="0.25"/>
<circle cx="295.3" cy="146.3" r="2.0" fill="#9b59b6" opacity="0.25"/>
<circle cx="306.0" cy="127.0" r="2.0" fill="#9b59b6" opacity="0.25"/>
<circle cx="446.2" cy="132.4" r="2.0" fill="#9b59b6" opacity="0.25"/>
<circle cx="346.2" cy="131.5" r="2.0" fill="#9b59b6" opacity="0.25"/>
<circle cx="307.9" cy="135.6" r="2.0" fill="#9b59b6" opacity="0.25"/>
<circle cx="302.5" cy="154.6" r="2.0" fill="#9b59b6" opacity="0.25"/>
<circle cx="255.4" cy="139.3" r="2.0" fill="#9b59b6" opacity="0.25"/>
<circle cx="350.4" cy="156.7" r="2.0" fill="#9b59b6" opacity="0.25"/>
<circle cx="299.7" cy="121.6" r="2.0" fill="#9b59b6" opacity="0.25"/>
<circle cx="314.0" cy="126.2" r="2.0" fill="#9b59b6" opacity="0.25"/>
<circle cx="442.7" cy="140.4" r="2.0" fill="#9b59b6" opacity="0.25"/>
<circle cx="394.8" cy="120.9" r="2.0" fill="#9b59b6" opacity="0.25"/>
<circle cx="393.0" cy="128.6" r="2.0" fill="#9b59b6" opacity="0.25"/>
<circle cx="338.2" cy="123.0" r="2.0" fill="#9b59b6" opacity="0.25"/>
<circle cx="321.1" cy="153.6" r="2.0" fill="#9b59b6" opacity="0.25"/>
<circle cx="251.5" cy="166.0" r="2.0" fill="#9b59b6" opacity="0.25"/>
<text x="640.0" y="32.0" font-family="DejaVu Sans,Helvetica,Arial,sans-serif" font-size="10" fill="#888888" text-anchor="start" font-weight="normal">candidates passing DRC + LVS + hard constraints</text>
<text x="640.0" y="47.0" font-family="DejaVu Sans,Helvetica,Arial,sans-serif" font-size="10" fill="#888888" text-anchor="start" font-weight="normal">buffer</text>
<rect x="640.0" y="52.0" width="240.0" height="10.0" fill="#88888833" rx="2"/>
<rect x="640.0" y="52.0" width="110.8" height="10.0" fill="#3572b0" rx="2"/>
<text x="880.0" y="47.0" font-family="DejaVu Sans,Helvetica,Arial,sans-serif" font-size="10" fill="#888888" text-anchor="end" font-weight="normal">6/13</text>
<text x="640.0" y="81.0" font-family="DejaVu Sans,Helvetica,Arial,sans-serif" font-size="10" fill="#888888" text-anchor="start" font-weight="normal">five_transistor_ota</text>
<rect x="640.0" y="86.0" width="240.0" height="10.0" fill="#88888833" rx="2"/>
<rect x="640.0" y="86.0" width="151.2" height="10.0" fill="#d1663a" rx="2"/>
<text x="880.0" y="81.0" font-family="DejaVu Sans,Helvetica,Arial,sans-serif" font-size="10" fill="#888888" text-anchor="end" font-weight="normal">126/200</text>
<text x="640.0" y="115.0" font-family="DejaVu Sans,Helvetica,Arial,sans-serif" font-size="10" fill="#888888" text-anchor="start" font-weight="normal">current_mirror_ota</text>
<rect x="640.0" y="120.0" width="240.0" height="10.0" fill="#88888833" rx="2"/>
<rect x="640.0" y="120.0" width="43.2" height="10.0" fill="#2e9e6b" rx="2"/>
<text x="880.0" y="115.0" font-family="DejaVu Sans,Helvetica,Arial,sans-serif" font-size="10" fill="#888888" text-anchor="end" font-weight="normal">36/200</text>
<text x="640.0" y="149.0" font-family="DejaVu Sans,Helvetica,Arial,sans-serif" font-size="10" fill="#888888" text-anchor="start" font-weight="normal">telescopic_ota</text>
<rect x="640.0" y="154.0" width="240.0" height="10.0" fill="#88888833" rx="2"/>
<rect x="640.0" y="154.0" width="22.8" height="10.0" fill="#9b59b6" rx="2"/>
<text x="880.0" y="149.0" font-family="DejaVu Sans,Helvetica,Arial,sans-serif" font-size="10" fill="#888888" text-anchor="end" font-weight="normal">19/200</text>
<text x="0.0" y="322.0" font-family="DejaVu Sans,Helvetica,Arial,sans-serif" font-size="10" fill="#888888" text-anchor="start" font-weight="normal">Solid dots clear every check; faint dots were rejected. The loop ships the best clean candidate, so the rejects never reach GDS.</text>
</svg>
