<svg xmlns="http://www.w3.org/2000/svg" width="900" height="300" viewBox="0 0 900 300">
<text x="0.0" y="14.0" font-family="DejaVu Sans,Helvetica,Arial,sans-serif" font-size="12" fill="#888888" text-anchor="start" font-weight="bold">Global placement: cost vs. iteration, normalised to each circuit's start</text>
<line x1="55.0" y1="235.0" x2="880.0" y2="235.0" stroke="#88888833" stroke-width="1"/>
<text x="49.0" y="238.5" font-family="DejaVu Sans,Helvetica,Arial,sans-serif" font-size="10" fill="#888888" text-anchor="end" font-weight="normal">0%</text>
<line x1="55.0" y1="203.8" x2="880.0" y2="203.8" stroke="#88888833" stroke-width="1"/>
<text x="49.0" y="207.3" font-family="DejaVu Sans,Helvetica,Arial,sans-serif" font-size="10" fill="#888888" text-anchor="end" font-weight="normal">25%</text>
<line x1="55.0" y1="172.7" x2="880.0" y2="172.7" stroke="#88888833" stroke-width="1"/>
<text x="49.0" y="176.2" font-family="DejaVu Sans,Helvetica,Arial,sans-serif" font-size="10" fill="#888888" text-anchor="end" font-weight="normal">50%</text>
<line x1="55.0" y1="141.5" x2="880.0" y2="141.5" stroke="#88888833" stroke-width="1"/>
<text x="49.0" y="145.0" font-family="DejaVu Sans,Helvetica,Arial,sans-serif" font-size="10" fill="#888888" text-anchor="end" font-weight="normal">75%</text>
<line x1="55.0" y1="110.3" x2="880.0" y2="110.3" stroke="#88888833" stroke-width="1"/>
<text x="49.0" y="113.8" font-family="DejaVu Sans,Helvetica,Arial,sans-serif" font-size="10" fill="#888888" text-anchor="end" font-weight="normal">100%</text>
<line x1="55.0" y1="79.2" x2="880.0" y2="79.2" stroke="#88888833" stroke-width="1"/>
<text x="49.0" y="82.7" font-family="DejaVu Sans,Helvetica,Arial,sans-serif" font-size="10" fill="#888888" text-anchor="end" font-weight="normal">125%</text>
<line x1="55.0" y1="45.0" x2="55.0" y2="235.0" stroke="#888888" stroke-width="1"/>
<line x1="55.0" y1="235.0" x2="880.0" y2="235.0" stroke="#888888" stroke-width="1"/>
<text x="55.0" y="249.0" font-family="DejaVu Sans,Helvetica,Arial,sans-serif" font-size="10" fill="#888888" text-anchor="middle" font-weight="normal">0</text>
<text x="261.2" y="249.0" font-family="DejaVu Sans,Helvetica,Arial,sans-serif" font-size="10" fill="#888888" text-anchor="middle" font-weight="normal">124</text>
<text x="467.5" y="249.0" font-family="DejaVu Sans,Helvetica,Arial,sans-serif" font-size="10" fill="#888888" text-anchor="middle" font-weight="normal">249</text>
<text x="673.8" y="249.0" font-family="DejaVu Sans,Helvetica,Arial,sans-serif" font-size="10" fill="#888888" text-anchor="middle" font-weight="normal">374</text>
<text x="880.0" y="249.0" font-family="DejaVu Sans,Helvetica,Arial,sans-serif" font-size="10" fill="#888888" text-anchor="middle" font-weight="normal">499</text>
<text x="467.5" y="265.0" font-family="DejaVu Sans,Helvetica,Arial,sans-serif" font-size="10" fill="#888888" text-anchor="middle" font-weight="normal">iteration</text>
<text x="55.0" y="35.0" font-family="DejaVu Sans,Helvetica,Arial,sans-serif" font-size="10" fill="#888888" text-anchor="start" font-weight="normal">cost, % of initial</text>
<path d="M55.0,110.3 L56.7,123.4 L58.3,137.2 L60.0,126.2 L61.6,98.6 L63.3,86.9 L64.9,102.1 L66.6,119.5 L68.2,131.1 L69.9,133.8 L71.5,145.2 L73.2,148.4 L74.8,136.8 L76.5,128.9 L78.1,129.3 L79.8,120.9 L81.5,103.2 L83.1,81.5 L84.8,63.9 L86.4,51.3 L88.1,45.7 L89.7,45.0 L91.4,46.1 L93.0,53.9 L94.7,67.8 L96.3,78.8 L98.0,79.3 L99.6,81.5 L101.3,97.6 L102.9,115.4 L104.6,117.2 L106.3,117.4 L107.9,113.8 L109.6,112.8 L111.2,116.9 L112.9,125.3 L114.5,135.5 L116.2,141.6 L117.8,143.1 L119.5,144.3 L121.1,150.2 L122.8,156.4 L124.4,160.0 L126.1,160.8 L127.7,150.6 L129.4,146.9 L131.1,144.3 L132.7,148.0 L134.4,153.6 L136.0,156.4 L137.7,155.3 L139.3,156.5 L141.0,155.2 L142.6,159.5 L144.3,173.6 L145.9,184.6 L147.6,186.8 L149.2,186.2 L150.9,183.3 L152.5,179.0 L154.2,173.6 L155.9,167.7 L157.5,160.4 L159.2,153.4 L160.8,142.3 L162.5,144.4 L164.1,146.2 L165.8,147.9 L167.4,155.3 L169.1,160.5 L170.7,165.6 L172.4,174.0 L174.0,181.9 L175.7,182.1 L177.3,177.3 L179.0,176.6 L180.7,177.6 L182.3,172.8 L184.0,161.8 L185.6,158.7 L187.3,169.6 L188.9,165.2 L190.6,158.4 L192.2,153.3 L193.9,152.8 L195.5,159.7 L197.2,158.2 L198.8,154.9 L200.5,152.1 L202.1,157.6 L203.8,153.6 L205.5,150.6 L207.1,156.4 L208.8,161.4 L210.4,159.1 L212.1,155.1 L213.7,149.8 L215.4,155.7 L217.0,153.2 L218.7,149.2 L220.3,153.6 L222.0,158.2 L223.6,155.5 L225.3,152.2 L226.9,147.6 L228.6,152.9 L230.3,151.1 L231.9,147.4 L233.6,148.4 L235.2,150.2 L236.9,151.7 L238.5,153.7 L240.2,154.8 L241.8,160.8 L243.5,159.6 L245.1,160.3 L246.8,161.6 L248.4,157.2 L250.1,152.3 L251.7,154.8 L253.4,150.4 L255.1,149.8 L256.7,150.0 L258.4,151.5 L260.0,153.0 L261.7,149.1 L263.3,152.9 L265.0,151.0 L266.6,155.0 L268.3,155.8 L269.9,150.3 L271.6,150.8 L273.2,150.4 L274.9,151.5 L276.5,151.0 L278.2,152.4 L279.8,154.5 L281.5,150.7 L283.2,152.0 L284.8,150.0 L286.5,155.2 L288.1,155.5 L289.8,149.6 L291.4,149.5 L293.1,149.9 L294.7,151.4 L296.4,150.9 L298.0,152.1 L299.7,153.6 L301.3,150.0 L303.0,151.5 L304.6,149.6 L306.3,154.2 L308.0,154.8 L309.6,149.9 L311.3,150.0 L312.9,149.8 L314.6,150.7 L316.2,150.7 L317.9,151.4 L319.5,152.3 L321.2,149.0 L322.8,150.8 L324.5,149.5 L326.1,153.8 L327.8,154.3 L329.4,149.4 L331.1,149.6 L332.8,149.4 L334.4,150.5 L336.1,150.1 L337.7,151.2 L339.4,152.7 L341.0,149.5 L342.7,150.9 L344.3,149.2 L346.0,153.3 L347.6,153.5 L349.3,149.6 L350.9,149.8 L352.6,148.5 L354.2,149.2 L355.9,149.6 L357.6,150.9 L359.2,152.5 L360.9,149.6 L362.5,150.3 L364.2,148.7 L365.8,152.7 L367.5,153.2 L369.1,149.1 L370.8,149.6 L372.4,148.8 L374.1,149.6 L375.7,149.6 L377.4,150.3 L379.0,152.1 L380.7,149.2 L382.4,150.4 L384.0,148.9 L385.7,151.6 L387.3,151.8 L389.0,148.6 L390.6,149.4 L392.3,148.7 L393.9,149.6 L395.6,149.1 L397.2,149.6 L398.9,151.5 L400.5,149.0 L402.2,150.0 L403.8,148.8 L405.5,151.7 L407.2,151.9 L408.8,148.7 L410.5,149.0 L412.1,148.5 L413.8,149.2 L415.4,149.2 L417.1,149.8 L418.7,150.5 L420.4,148.0 L422.0,149.5 L423.7,148.6 L425.3,151.6 L427.0,151.9 L428.6,148.2 L430.3,148.6 L432.0,148.2 L433.6,149.1 L435.3,148.9 L436.9,149.6 L438.6,150.7 L440.2,148.3 L441.9,149.6 L443.5,148.3 L445.2,151.2 L446.8,151.3 L448.5,148.4 L450.1,148.8 L451.8,147.5 L453.4,148.1 L455.1,148.3 L456.8,149.4 L458.4,150.6 L460.1,148.4 L461.7,149.1 L463.4,147.9 L465.0,150.6 L466.7,151.2 L468.3,148.1 L470.0,148.7 L471.6,147.8 L473.3,148.3 L474.9,148.4 L476.6,148.8 L478.2,150.2 L479.9,148.0 L481.6,149.2 L483.2,148.1 L484.9,149.8 L486.5,150.0 L488.2,147.6 L489.8,148.5 L491.5,147.8 L493.1,148.4 L494.8,148.0 L496.4,148.4 L498.1,149.7 L499.7,148.0 L501.4,149.0 L503.0,148.0 L504.7,149.9 L506.4,150.1 L508.0,147.7 L509.7,148.1 L511.3,147.5 L513.0,148.1 L514.6,148.1 L516.3,148.5 L517.9,149.0 L519.6,147.2 L521.2,148.5 L522.9,147.9 L524.5,149.9 L526.2,150.1 L527.8,147.3 L529.5,147.8 L531.2,147.3 L532.8,148.0 L534.5,147.9 L536.1,148.4 L537.8,149.1 L539.4,147.3 L541.1,148.6 L542.7,147.6 L544.4,149.5 L546.0,149.6 L547.7,147.4 L549.3,148.0 L551.0,149.6 L552.6,148.4 L554.3,148.2 L556.0,148.9 L557.6,147.5 L559.3,148.7 L560.9,146.7 L562.6,147.0 L564.2,147.1 L565.9,147.8 L567.5,148.8 L569.2,147.2 L570.8,148.4 L572.5,147.5 L574.1,148.9 L575.8,149.3 L577.4,147.2 L579.1,148.0 L580.8,146.8 L582.4,147.3 L584.1,147.3 L585.7,147.7 L587.4,148.6 L589.0,147.1 L590.7,148.2 L592.3,147.4 L594.0,148.4 L595.6,148.5 L597.3,146.8 L598.9,147.8 L600.6,149.6 L602.2,148.6 L603.9,147.7 L605.6,147.9 L607.2,147.0 L608.9,148.3 L610.5,146.9 L612.2,147.0 L613.8,146.7 L615.5,147.1 L617.1,148.1 L618.8,146.9 L620.4,148.3 L622.1,147.6 L623.7,148.3 L625.4,148.4 L627.0,146.7 L628.7,147.5 L630.4,146.6 L632.0,147.0 L633.7,147.0 L635.3,147.3 L637.0,147.7 L638.6,148.5 L640.3,146.8 L641.9,146.2 L643.6,146.6 L645.2,146.9 L646.9,147.7 L648.5,146.5 L650.2,148.0 L651.8,147.2 L653.5,147.9 L655.2,148.3 L656.8,146.6 L658.5,147.6 L660.1,146.3 L661.8,146.7 L663.4,146.7 L665.1,147.2 L666.7,147.9 L668.4,146.7 L670.0,147.6 L671.7,146.9 L673.3,147.1 L675.0,146.5 L676.6,147.1 L678.3,146.6 L679.9,148.2 L681.6,147.5 L683.3,147.6 L684.9,147.7 L686.6,146.3 L688.2,147.1 L689.9,146.2 L691.5,146.7 L693.2,146.7 L694.8,147.0 L696.5,147.4 L698.1,146.3 L699.8,147.5 L701.4,147.1 L703.1,147.2 L704.7,146.7 L706.4,146.8 L708.1,146.4 L709.7,147.9 L711.4,147.4 L713.0,147.5 L714.7,147.6 L716.3,146.4 L718.0,147.1 L719.6,146.2 L721.3,146.6 L722.9,146.5 L724.6,146.8 L726.2,147.2 L727.9,146.2 L729.5,147.3 L731.2,146.8 L732.9,146.9 L734.5,146.4 L736.2,146.8 L737.8,146.4 L739.5,147.8 L741.1,147.2 L742.8,146.9 L744.4,147.0 L746.1,146.2 L747.7,147.2 L749.4,146.2 L751.0,146.4 L752.7,146.2 L754.3,146.4 L756.0,147.0 L757.7,146.3 L759.3,147.3 L761.0,146.8 L762.6,146.7 L764.3,146.2 L765.9,146.6 L767.6,146.5 L769.2,147.6 L770.9,147.1 L772.5,146.9 L774.2,147.0 L775.8,146.3 L777.5,147.1 L779.1,146.2 L780.8,146.3 L782.5,146.1 L784.1,146.3 L785.8,146.9 L787.4,147.6 L789.1,146.7 L790.7,146.3 L792.4,146.3 L794.0,146.0 L795.7,146.7 L797.3,146.0 L799.0,147.2 L800.6,146.7 L802.3,146.9 L803.9,147.0 L805.6,146.1 L807.3,146.2 L808.9,146.7 L810.6,146.3 L812.2,146.1 L813.9,146.4 L815.5,146.7 L817.2,146.3 L818.8,147.0 L820.5,147.0 L822.1,146.1 L823.8,146.6 L825.4,146.1 L827.1,146.3 L828.7,146.1 L830.4,146.3 L832.1,146.5 L833.7,147.2 L835.4,146.4 L837.0,146.1 L838.7,146.1 L840.3,146.0 L842.0,146.5 L843.6,146.0 L845.3,147.0 L846.9,146.6 L848.6,146.6 L850.2,146.7 L851.9,146.0 L853.5,146.2 L855.2,146.8 L856.9,146.4 L858.5,146.0 L860.2,146.1 L861.8,146.1 L863.5,146.4 L865.1,146.8 L866.8,146.1 L868.4,146.6 L870.1,146.2 L871.7,146.7 L873.4,146.9 L875.0,146.0 L876.7,146.5 L878.3,147.1 L880.0,146.7" fill="none" stroke="#3572b0" stroke-width="1.4" stroke-linejoin="round"/>
<path d="M55.0,110.3 L56.7,106.6 L58.3,120.1 L60.0,128.2 L61.6,135.0 L63.3,139.7 L64.9,143.7 L66.6,150.0 L68.2,151.0 L69.9,147.4 L71.5,143.9 L73.2,140.7 L74.8,140.2 L76.5,143.6 L78.1,150.4 L79.8,153.1 L81.5,156.2 L83.1,156.2 L84.8,151.5 L86.4,143.2 L88.1,132.8 L89.7,132.3 L91.4,134.6 L93.0,134.6 L94.7,134.4 L96.3,130.0 L98.0,126.3 L99.6,135.2 L101.3,143.6 L102.9,148.6 L104.6,155.5 L106.3,173.4 L107.9,191.9 L109.6,196.0 L111.2,196.5 L112.9,198.5 L114.5,199.3 L116.2,192.5 L117.8,191.3 L119.5,190.9 L121.1,187.3 L122.8,182.7 L124.4,179.5 L126.1,175.4 L127.7,170.7 L129.4,168.3 L131.1,169.9 L132.7,167.0 L134.4,161.6 L136.0,162.8 L137.7,161.6 L139.3,149.4 L141.0,133.4 L142.6,121.2 L144.3,117.9 L145.9,120.1 L147.6,121.1 L149.2,120.7 L150.9,120.1 L152.5,122.5 L154.2,129.1 L155.9,133.8 L157.5,138.5 L159.2,142.5 L160.8,146.5 L162.5,156.7 L164.1,166.3 L165.8,174.8 L167.4,179.9 L169.1,179.5 L170.7,176.7 L172.4,174.5 L174.0,173.7 L175.7,173.9 L177.3,172.2 L179.0,172.4 L180.7,174.4 L182.3,173.8 L184.0,173.6 L185.6,170.6 L187.3,170.6 L188.9,167.8 L190.6,169.8 L192.2,169.8 L193.9,170.3 L195.5,168.6 L197.2,171.4 L198.8,171.5 L200.5,175.6 L202.1,176.5 L203.8,180.7 L205.5,180.2 L207.1,181.7 L208.8,181.6 L210.4,182.3 L212.1,184.5 L213.7,185.6 L215.4,187.0 L217.0,188.0 L218.7,188.8 L220.3,189.9 L222.0,190.5 L223.6,190.3 L225.3,191.5 L226.9,192.9 L228.6,195.3 L230.3,197.7 L231.9,199.0 L233.6,199.9 L235.2,200.5 L236.9,201.5 L238.5,202.6 L240.2,203.1 L241.8,203.5 L243.5,203.9 L245.1,204.4 L246.8,205.2 L248.4,205.7 L250.1,205.9 L251.7,206.2 L253.4,206.3 L255.1,205.9 L256.7,204.8 L258.4,204.7 L260.0,203.5 L261.7,203.2 L263.3,203.7 L265.0,203.4 L266.6,202.5 L268.3,202.4 L269.9,203.7 L271.6,204.1 L273.2,204.0 L274.9,203.8 L276.5,203.5 L278.2,203.0 L279.8,202.3 L281.5,202.0 L283.2,202.3 L284.8,202.9 L286.5,203.7 L288.1,204.1 L289.8,204.2 L291.4,205.0 L293.1,205.7 L294.7,206.2 L296.4,206.5 L298.0,205.4 L299.7,203.4 L301.3,202.6 L303.0,203.0 L304.6,202.7 L306.3,201.8 L308.0,201.8 L309.6,202.3 L311.3,201.6 L312.9,200.0 L314.6,199.9 L316.2,200.9 L317.9,200.9 L319.5,199.6 L321.2,199.4 L322.8,200.2 L324.5,199.1 L326.1,198.6 L327.8,198.6 L329.4,199.0 L331.1,199.4 L332.8,198.1 L334.4,198.1 L336.1,198.9 L337.7,198.2 L339.4,198.3 L341.0,198.3 L342.7,198.4 L344.3,198.8 L346.0,197.9 L347.6,198.0 L349.3,198.7 L350.9,198.2 L352.6,198.1 L354.2,198.2 L355.9,198.2 L357.6,198.6 L359.2,197.9 L360.9,197.9 L362.5,198.6 L364.2,198.2 L365.8,198.3 L367.5,198.3 L369.1,198.2 L370.8,198.7 L372.4,197.9 L374.1,198.0 L375.7,198.6 L377.4,198.2 L379.0,198.3 L380.7,198.2 L382.4,198.3 L384.0,198.7 L385.7,198.0 L387.3,198.0 L389.0,198.6 L390.6,198.2 L392.3,198.2 L393.9,198.2 L395.6,198.2 L397.2,198.6 L398.9,198.0 L400.5,198.0 L402.2,198.6 L403.8,198.2 L405.5,198.3 L407.2,198.3 L408.8,198.3 L410.5,198.8 L412.1,198.0 L413.8,198.0 L415.4,198.6 L417.1,198.2 L418.7,198.3 L420.4,198.2 L422.0,198.3 L423.7,198.7 L425.3,198.0 L427.0,198.1 L428.6,198.6 L430.3,198.2 L432.0,198.2 L433.6,198.3 L435.3,198.3 L436.9,198.7 L438.6,198.0 L440.2,198.1 L441.9,198.7 L443.5,198.2 L445.2,198.3 L446.8,198.4 L448.5,198.3 L450.1,198.7 L451.8,198.0 L453.4,198.1 L455.1,198.5 L456.8,198.2 L458.4,198.3 L460.1,198.2 L461.7,198.3 L463.4,198.7 L465.0,198.0 L466.7,198.1 L468.3,198.6 L470.0,198.2 L471.6,198.2 L473.3,198.2 L474.9,198.3 L476.6,198.7 L478.2,198.1 L479.9,198.1 L481.6,198.5 L483.2,198.2 L484.9,198.2 L486.5,198.3 L488.2,198.3 L489.8,198.6 L491.5,198.0 L493.1,198.1 L494.8,198.6 L496.4,198.2 L498.1,198.2 L499.7,198.2 L501.4,198.3 L503.0,198.6 L504.7,198.0 L506.4,198.0 L508.0,198.6 L509.7,198.2 L511.3,198.2 L513.0,198.2 L514.6,198.3 L516.3,198.6 L517.9,198.0 L519.6,198.1 L521.2,198.5 L522.9,198.1 L524.5,198.2 L526.2,198.2 L527.8,198.3 L529.5,198.6 L531.2,198.0 L532.8,198.0 L534.5,198.5 L536.1,198.2 L537.8,198.2 L539.4,198.1 L541.1,198.3 L542.7,198.6 L544.4,198.0 L546.0,198.1 L547.7,198.5 L549.3,198.1 L551.0,198.1 L552.6,198.1 L554.3,198.2 L556.0,198.5 L557.6,198.0 L559.3,198.0 L560.9,198.5 L562.6,198.1 L564.2,198.1 L565.9,198.2 L567.5,198.2 L569.2,198.5 L570.8,198.0 L572.5,198.0 L574.1,198.5 L575.8,198.1 L577.4,198.2 L579.1,198.1 L580.8,198.2 L582.4,198.5 L584.1,197.9 L585.7,198.0 L587.4,198.4 L589.0,198.0 L590.7,198.1 L592.3,198.1 L594.0,198.2 L595.6,198.4 L597.3,197.9 L598.9,198.0 L600.6,198.4 L602.2,198.0 L603.9,198.1 L605.6,198.0 L607.2,198.2 L608.9,198.4 L610.5,197.9 L612.2,198.0 L613.8,198.3 L615.5,198.0 L617.1,198.0 L618.8,198.0 L620.4,198.1 L622.1,198.3 L623.7,197.9 L625.4,197.9 L627.0,198.3 L628.7,198.0 L630.4,198.0 L632.0,198.0 L633.7,198.2 L635.3,198.3 L637.0,197.9 L638.6,197.9 L640.3,198.3 L641.9,198.0 L643.6,198.0 L645.2,198.1 L646.9,198.1 L648.5,198.3 L650.2,197.9 L651.8,197.9 L653.5,198.3 L655.2,198.0 L656.8,198.0 L658.5,198.0 L660.1,198.1 L661.8,198.3 L663.4,197.9 L665.1,197.9 L666.7,198.3 L668.4,198.0 L670.0,197.9 L671.7,197.9 L673.3,198.1 L675.0,198.3 L676.6,197.9 L678.3,197.9 L679.9,198.2 L681.6,198.0 L683.3,197.9 L684.9,197.9 L686.6,198.1 L688.2,198.2 L689.9,197.8 L691.5,197.9 L693.2,198.2 L694.8,198.0 L696.5,197.9 L698.1,197.9 L699.8,198.0 L701.4,198.2 L703.1,197.8 L704.7,197.8 L706.4,198.2 L708.1,197.9 L709.7,197.9 L711.4,197.9 L713.0,198.0 L714.7,198.2 L716.3,197.8 L718.0,197.8 L719.6,198.1 L721.3,197.9 L722.9,197.9 L724.6,197.9 L726.2,198.0 L727.9,198.2 L729.5,197.8 L731.2,197.8 L732.9,198.1 L734.5,197.9 L736.2,197.9 L737.8,197.8 L739.5,198.0 L741.1,198.2 L742.8,197.8 L744.4,197.8 L746.1,198.1 L747.7,197.9 L749.4,197.8 L751.0,197.8 L752.7,198.0 L754.3,198.1 L756.0,197.8 L757.7,197.8 L759.3,198.1 L761.0,197.9 L762.6,197.8 L764.3,197.8 L765.9,198.0 L767.6,198.1 L769.2,197.8 L770.9,197.8 L772.5,198.1 L774.2,197.9 L775.8,197.8 L777.5,197.8 L779.1,197.9 L780.8,198.1 L782.5,197.8 L784.1,197.8 L785.8,198.0 L787.4,197.8 L789.1,197.8 L790.7,197.8 L792.4,197.9 L794.0,198.1 L795.7,197.8 L797.3,197.8 L799.0,198.0 L800.6,197.8 L802.3,197.8 L803.9,197.7 L805.6,197.9 L807.3,198.1 L808.9,197.8 L810.6,197.8 L812.2,198.0 L813.9,197.8 L815.5,197.7 L817.2,197.7 L818.8,197.9 L820.5,198.0 L822.1,197.8 L823.8,197.8 L825.4,198.0 L827.1,197.8 L828.7,197.7 L830.4,197.7 L832.1,197.9 L833.7,198.0 L835.4,197.7 L837.0,197.7 L838.7,197.5 L840.3,197.3 L842.0,197.3 L843.6,197.1 L845.3,196.6 L846.9,196.1 L848.6,195.7 L850.2,195.4 L851.9,195.1 L853.5,194.9 L855.2,194.6 L856.9,194.2 L858.5,193.7 L860.2,193.9 L861.8,194.3 L863.5,194.7 L865.1,195.5 L866.8,196.0 L868.4,196.3 L870.1,196.5 L871.7,196.6 L873.4,196.6 L875.0,196.5 L876.7,196.6 L878.3,196.5 L880.0,196.2" fill="none" stroke="#d1663a" stroke-width="1.4" stroke-linejoin="round"/>
<path d="M55.0,110.3 L56.7,91.8 L58.3,85.7 L60.0,87.2 L61.6,87.1 L63.3,84.1 L64.9,77.3 L66.6,81.3 L68.2,92.8 L69.9,94.0 L71.5,86.0 L73.2,69.1 L74.8,53.8 L76.5,56.3 L78.1,61.6 L79.8,72.4 L81.5,88.3 L83.1,98.2 L84.8,107.6 L86.4,122.0 L88.1,132.3 L89.7,131.7 L91.4,132.2 L93.0,131.7 L94.7,134.6 L96.3,136.0 L98.0,134.1 L99.6,142.1 L101.3,146.7 L102.9,148.6 L104.6,147.0 L106.3,143.7 L107.9,141.5 L109.6,138.0 L111.2,139.2 L112.9,138.7 L114.5,139.2 L116.2,141.5 L117.8,145.5 L119.5,148.9 L121.1,147.1 L122.8,140.8 L124.4,140.1 L126.1,140.1 L127.7,141.5 L129.4,142.9 L131.1,140.9 L132.7,139.2 L134.4,143.4 L136.0,145.8 L137.7,146.0 L139.3,147.5 L141.0,144.5 L142.6,145.0 L144.3,147.6 L145.9,149.7 L147.6,153.0 L149.2,158.1 L150.9,159.2 L152.5,166.3 L154.2,166.9 L155.9,166.9 L157.5,167.1 L159.2,168.6 L160.8,168.7 L162.5,168.8 L164.1,169.1 L165.8,165.2 L167.4,162.8 L169.1,160.3 L170.7,159.3 L172.4,157.3 L174.0,156.5 L175.7,154.3 L177.3,148.8 L179.0,140.8 L180.7,135.1 L182.3,133.3 L184.0,134.9 L185.6,134.1 L187.3,133.3 L188.9,131.0 L190.6,124.9 L192.2,120.6 L193.9,116.4 L195.5,113.7 L197.2,122.0 L198.8,128.4 L200.5,128.2 L202.1,130.9 L203.8,137.9 L205.5,147.2 L207.1,154.2 L208.8,159.0 L210.4,160.3 L212.1,161.5 L213.7,160.4 L215.4,162.3 L217.0,166.1 L218.7,175.3 L220.3,183.8 L222.0,186.7 L223.6,188.6 L225.3,186.4 L226.9,184.9 L228.6,184.0 L230.3,181.9 L231.9,179.6 L233.6,180.0 L235.2,184.5 L236.9,190.1 L238.5,195.2 L240.2,197.9 L241.8,197.6 L243.5,198.5 L245.1,199.0 L246.8,197.9 L248.4,197.9 L250.1,198.6 L251.7,197.1 L253.4,193.7 L255.1,190.7 L256.7,188.8 L258.4,185.3 L260.0,179.3 L261.7,175.3 L263.3,170.3 L265.0,165.7 L266.6,161.5 L268.3,162.9 L269.9,162.5 L271.6,159.6 L273.2,152.5 L274.9,143.2 L276.5,139.4 L278.2,138.1 L279.8,135.5 L281.5,128.3 L283.2,117.9 L284.8,110.5 L286.5,107.3 L288.1,105.6 L289.8,106.3 L291.4,109.1 L293.1,114.8 L294.7,124.2 L296.4,129.6 L298.0,132.2 L299.7,133.4 L301.3,132.3 L303.0,129.7 L304.6,130.5 L306.3,132.6 L308.0,135.2 L309.6,136.3 L311.3,137.2 L312.9,138.6 L314.6,138.6 L316.2,140.0 L317.9,142.2 L319.5,141.3 L321.2,144.2 L322.8,144.2 L324.5,141.8 L326.1,136.4 L327.8,134.2 L329.4,136.9 L331.1,139.4 L332.8,139.2 L334.4,139.5 L336.1,141.8 L337.7,141.9 L339.4,140.8 L341.0,139.1 L342.7,140.3 L344.3,142.1 L346.0,140.7 L347.6,139.8 L349.3,139.3 L350.9,141.7 L352.6,145.9 L354.2,150.3 L355.9,154.6 L357.6,157.1 L359.2,159.6 L360.9,158.8 L362.5,157.4 L364.2,155.7 L365.8,154.8 L367.5,156.2 L369.1,158.8 L370.8,161.6 L372.4,161.8 L374.1,158.9 L375.7,155.8 L377.4,153.4 L379.0,153.5 L380.7,152.8 L382.4,150.8 L384.0,150.2 L385.7,150.3 L387.3,151.7 L389.0,152.9 L390.6,153.8 L392.3,155.3 L393.9,157.0 L395.6,159.0 L397.2,162.3 L398.9,164.2 L400.5,167.1 L402.2,169.9 L403.8,170.2 L405.5,169.5 L407.2,170.0 L408.8,171.9 L410.5,173.0 L412.1,175.8 L413.8,180.0 L415.4,183.0 L417.1,184.2 L418.7,184.8 L420.4,186.1 L422.0,186.5 L423.7,185.9 L425.3,185.4 L427.0,185.1 L428.6,183.9 L430.3,183.7 L432.0,184.7 L433.6,185.6 L435.3,185.4 L436.9,184.4 L438.6,181.9 L440.2,177.4 L441.9,173.8 L443.5,171.3 L445.2,169.8 L446.8,167.7 L448.5,166.4 L450.1,165.6 L451.8,167.0 L453.4,169.0 L455.1,171.4 L456.8,170.8 L458.4,168.3 L460.1,167.1 L461.7,166.7 L463.4,165.3 L465.0,163.4 L466.7,161.1 L468.3,159.5 L470.0,159.6 L471.6,160.2 L473.3,162.0 L474.9,163.8 L476.6,165.2 L478.2,166.8 L479.9,169.3 L481.6,171.5 L483.2,172.7 L484.9,173.3 L486.5,173.5 L488.2,173.2 L489.8,172.3 L491.5,171.4 L493.1,170.3 L494.8,168.7 L496.4,167.7 L498.1,167.5 L499.7,168.0 L501.4,167.6 L503.0,166.4 L504.7,165.4 L506.4,164.2 L508.0,163.3 L509.7,162.5 L511.3,161.9 L513.0,162.0 L514.6,162.4 L516.3,162.7 L517.9,162.8 L519.6,162.6 L521.2,162.3 L522.9,162.6 L524.5,162.3 L526.2,161.9 L527.8,160.3 L529.5,158.3 L531.2,156.7 L532.8,155.0 L534.5,154.6 L536.1,155.6 L537.8,157.8 L539.4,159.8 L541.1,161.8 L542.7,163.5 L544.4,165.1 L546.0,166.9 L547.7,168.7 L549.3,170.3 L551.0,171.0 L552.6,171.2 L554.3,171.2 L556.0,170.6 L557.6,169.2 L559.3,168.3 L560.9,167.7 L562.6,166.5 L564.2,165.5 L565.9,165.9 L567.5,166.1 L569.2,165.9 L570.8,167.2 L572.5,169.8 L574.1,172.6 L575.8,176.1 L577.4,179.4 L579.1,180.3 L580.8,180.1 L582.4,179.2 L584.1,176.9 L585.7,173.3 L587.4,168.3 L589.0,163.2 L590.7,160.0 L592.3,158.5 L594.0,158.2 L595.6,159.0 L597.3,159.2 L598.9,160.2 L600.6,161.5 L602.2,163.1 L603.9,164.7 L605.6,165.8 L607.2,166.3 L608.9,167.4 L610.5,169.0 L612.2,170.9 L613.8,173.0 L615.5,174.0 L617.1,174.4 L618.8,173.9 L620.4,172.5 L622.1,171.8 L623.7,171.4 L625.4,171.8 L627.0,172.8 L628.7,173.4 L630.4,173.7 L632.0,173.8 L633.7,173.8 L635.3,173.9 L637.0,173.9 L638.6,173.6 L640.3,173.3 L641.9,172.6 L643.6,172.7 L645.2,172.4 L646.9,172.2 L648.5,171.7 L650.2,172.2 L651.8,172.5 L653.5,172.9 L655.2,173.8 L656.8,175.0 L658.5,176.8 L660.1,178.1 L661.8,178.9 L663.4,179.4 L665.1,179.5 L666.7,179.5 L668.4,179.6 L670.0,179.3 L671.7,178.4 L673.3,177.6 L675.0,176.6 L676.6,176.0 L678.3,175.6 L679.9,175.5 L681.6,175.4 L683.3,175.3 L684.9,174.7 L686.6,173.6 L688.2,171.3 L689.9,168.4 L691.5,165.0 L693.2,160.7 L694.8,158.0 L696.5,155.2 L698.1,152.3 L699.8,150.4 L701.4,149.4 L703.1,148.6 L704.7,149.0 L706.4,150.2 L708.1,151.9 L709.7,153.9 L711.4,154.8 L713.0,155.1 L714.7,155.0 L716.3,154.9 L718.0,155.1 L719.6,155.4 L721.3,156.0 L722.9,157.1 L724.6,158.1 L726.2,158.4 L727.9,158.4 L729.5,158.1 L731.2,158.4 L732.9,158.7 L734.5,159.2 L736.2,159.1 L737.8,158.7 L739.5,158.1 L741.1,157.9 L742.8,158.0 L744.4,157.8 L746.1,157.7 L747.7,157.4 L749.4,157.5 L751.0,158.0 L752.7,158.5 L754.3,158.9 L756.0,159.1 L757.7,159.2 L759.3,159.8 L761.0,160.7 L762.6,161.5 L764.3,162.0 L765.9,162.4 L767.6,162.8 L769.2,163.0 L770.9,163.2 L772.5,163.6 L774.2,164.4 L775.8,164.7 L777.5,165.3 L779.1,166.0 L780.8,166.5 L782.5,166.9 L784.1,167.1 L785.8,166.8 L787.4,166.0 L789.1,164.8 L790.7,163.4 L792.4,161.8 L794.0,160.1 L795.7,158.8 L797.3,158.3 L799.0,158.2 L800.6,158.4 L802.3,158.6 L803.9,159.1 L805.6,160.1 L807.3,161.1 L808.9,161.7 L810.6,162.6 L812.2,163.5 L813.9,164.0 L815.5,164.0 L817.2,163.6 L818.8,163.2 L820.5,162.6 L822.1,162.7 L823.8,163.2 L825.4,163.5 L827.1,163.5 L828.7,163.0 L830.4,162.7 L832.1,162.4 L833.7,162.4 L835.4,162.7 L837.0,163.5 L838.7,164.1 L840.3,164.4 L842.0,164.6 L843.6,164.6 L845.3,164.6 L846.9,164.5 L848.6,164.1 L850.2,163.5 L851.9,163.1 L853.5,162.8 L855.2,162.7 L856.9,162.5 L858.5,161.9 L860.2,161.4 L861.8,161.2 L863.5,161.2 L865.1,161.3 L866.8,161.3 L868.4,161.2 L870.1,161.0 L871.7,160.9 L873.4,160.7 L875.0,160.5 L876.7,160.2 L878.3,159.8 L880.0,159.5" fill="none" stroke="#2e9e6b" stroke-width="1.4" stroke-linejoin="round"/>
<path d="M55.0,110.3 L56.7,93.1 L58.3,81.1 L60.0,76.2 L61.6,89.8 L63.3,93.1 L64.9,89.7 L66.6,86.4 L68.2,88.7 L69.9,91.1 L71.5,109.6 L73.2,131.6 L74.8,149.2 L76.5,162.3 L78.1,168.7 L79.8,176.7 L81.5,184.1 L83.1,185.4 L84.8,190.2 L86.4,194.2 L88.1,199.4 L89.7,202.6 L91.4,205.5 L93.0,201.9 L94.7,189.5 L96.3,176.3 L98.0,173.0 L99.6,175.6 L101.3,185.1 L102.9,203.4 L104.6,218.9 L106.3,223.9 L107.9,223.5 L109.6,226.0 L111.2,228.5 L112.9,230.3 L114.5,230.6 L116.2,230.6 L117.8,230.7 L119.5,230.8 L121.1,230.6 L122.8,229.9 L124.4,227.1 L126.1,225.1 L127.7,221.2 L129.4,215.4 L131.1,213.5 L132.7,217.2 L134.4,223.3 L136.0,229.1 L137.7,230.9 L139.3,230.4 L141.0,230.1 L142.6,229.7 L144.3,229.6 L145.9,229.7 L147.6,229.8 L149.2,230.2 L150.9,230.1 L152.5,229.6 L154.2,228.9 L155.9,228.4 L157.5,227.6 L159.2,222.7 L160.8,221.4 L162.5,219.5 L164.1,219.4 L165.8,218.0 L167.4,211.5 L169.1,206.0 L170.7,202.9 L172.4,193.2 L174.0,181.3 L175.7,182.4 L177.3,188.4 L179.0,195.0 L180.7,198.1 L182.3,197.4 L184.0,194.0 L185.6,190.6 L187.3,189.7 L188.9,190.6 L190.6,190.1 L192.2,187.5 L193.9,187.8 L195.5,191.1 L197.2,194.2 L198.8,197.8 L200.5,201.5 L202.1,204.2 L203.8,203.2 L205.5,199.5 L207.1,197.3 L208.8,195.1 L210.4,194.3 L212.1,194.6 L213.7,197.3 L215.4,200.6 L217.0,199.8 L218.7,199.6 L220.3,199.5 L222.0,198.8 L223.6,197.1 L225.3,196.5 L226.9,196.1 L228.6,196.3 L230.3,196.4 L231.9,195.7 L233.6,194.8 L235.2,194.4 L236.9,194.0 L238.5,195.5 L240.2,196.6 L241.8,197.5 L243.5,196.3 L245.1,194.1 L246.8,190.4 L248.4,186.1 L250.1,182.4 L251.7,180.1 L253.4,178.3 L255.1,177.9 L256.7,179.3 L258.4,182.5 L260.0,185.0 L261.7,189.4 L263.3,191.6 L265.0,191.6 L266.6,191.8 L268.3,193.7 L269.9,193.0 L271.6,190.0 L273.2,187.7 L274.9,183.3 L276.5,182.6 L278.2,183.8 L279.8,185.6 L281.5,186.6 L283.2,187.1 L284.8,187.0 L286.5,186.9 L288.1,187.3 L289.8,187.9 L291.4,188.2 L293.1,188.0 L294.7,188.2 L296.4,187.4 L298.0,185.3 L299.7,182.5 L301.3,179.4 L303.0,176.8 L304.6,176.5 L306.3,175.5 L308.0,173.3 L309.6,170.8 L311.3,169.5 L312.9,170.0 L314.6,169.9 L316.2,170.4 L317.9,170.4 L319.5,171.7 L321.2,173.7 L322.8,176.0 L324.5,177.4 L326.1,177.7 L327.8,176.4 L329.4,173.9 L331.1,172.9 L332.8,171.6 L334.4,171.4 L336.1,173.9 L337.7,177.8 L339.4,179.8 L341.0,181.3 L342.7,182.7 L344.3,184.1 L346.0,184.8 L347.6,185.4 L349.3,187.4 L350.9,188.5 L352.6,190.7 L354.2,193.1 L355.9,196.0 L357.6,198.8 L359.2,197.6 L360.9,194.6 L362.5,191.5 L364.2,186.6 L365.8,182.7 L367.5,180.2 L369.1,179.0 L370.8,177.2 L372.4,174.3 L374.1,171.4 L375.7,168.5 L377.4,166.5 L379.0,162.8 L380.7,160.8 L382.4,160.6 L384.0,160.3 L385.7,159.9 L387.3,159.6 L389.0,159.9 L390.6,160.1 L392.3,161.6 L393.9,162.7 L395.6,162.7 L397.2,161.8 L398.9,160.8 L400.5,159.9 L402.2,161.0 L403.8,163.3 L405.5,166.1 L407.2,167.8 L408.8,168.8 L410.5,169.9 L412.1,170.2 L413.8,169.1 L415.4,169.4 L417.1,168.6 L418.7,167.4 L420.4,165.9 L422.0,163.9 L423.7,161.3 L425.3,160.2 L427.0,160.8 L428.6,162.3 L430.3,164.9 L432.0,166.9 L433.6,169.5 L435.3,172.3 L436.9,174.8 L438.6,176.5 L440.2,176.7 L441.9,176.6 L443.5,177.2 L445.2,177.4 L446.8,176.5 L448.5,175.0 L450.1,173.6 L451.8,172.4 L453.4,172.2 L455.1,172.5 L456.8,173.3 L458.4,173.2 L460.1,173.7 L461.7,174.0 L463.4,174.4 L465.0,173.8 L466.7,173.1 L468.3,174.4 L470.0,175.8 L471.6,175.9 L473.3,175.9 L474.9,175.6 L476.6,176.0 L478.2,176.4 L479.9,176.0 L481.6,175.6 L483.2,175.1 L484.9,175.4 L486.5,175.9 L488.2,177.6 L489.8,177.9 L491.5,177.8 L493.1,177.1 L494.8,176.5 L496.4,176.4 L498.1,177.2 L499.7,178.5 L501.4,179.5 L503.0,179.8 L504.7,179.2 L506.4,179.0 L508.0,179.9 L509.7,180.4 L511.3,180.8 L513.0,181.3 L514.6,182.2 L516.3,183.3 L517.9,183.9 L519.6,184.1 L521.2,184.4 L522.9,184.7 L524.5,184.3 L526.2,184.6 L527.8,184.4 L529.5,185.1 L531.2,184.8 L532.8,185.1 L534.5,184.9 L536.1,184.6 L537.8,185.2 L539.4,185.1 L541.1,185.4 L542.7,185.8 L544.4,186.0 L546.0,186.8 L547.7,187.1 L549.3,186.8 L551.0,185.9 L552.6,184.3 L554.3,181.5 L556.0,180.0 L557.6,179.3 L559.3,178.6 L560.9,178.1 L562.6,177.7 L564.2,178.5 L565.9,179.0 L567.5,179.4 L569.2,179.9 L570.8,180.7 L572.5,181.1 L574.1,181.3 L575.8,181.3 L577.4,181.5 L579.1,182.7 L580.8,183.1 L582.4,183.6 L584.1,183.5 L585.7,182.8 L587.4,181.5 L589.0,180.0 L590.7,179.1 L592.3,179.4 L594.0,180.3 L595.6,180.9 L597.3,181.2 L598.9,180.8 L600.6,179.8 L602.2,179.0 L603.9,178.5 L605.6,179.0 L607.2,180.0 L608.9,180.8 L610.5,180.5 L612.2,179.6 L613.8,178.3 L615.5,176.8 L617.1,176.4 L618.8,176.2 L620.4,176.5 L622.1,176.8 L623.7,176.9 L625.4,176.9 L627.0,176.7 L628.7,177.2 L630.4,178.2 L632.0,179.2 L633.7,180.1 L635.3,180.4 L637.0,181.1 L638.6,181.7 L640.3,182.8 L641.9,183.1 L643.6,182.6 L645.2,182.3 L646.9,182.7 L648.5,183.1 L650.2,183.4 L651.8,183.7 L653.5,183.7 L655.2,183.1 L656.8,182.4 L658.5,182.0 L660.1,182.3 L661.8,182.6 L663.4,182.7 L665.1,182.7 L666.7,183.3 L668.4,183.8 L670.0,184.2 L671.7,184.5 L673.3,185.1 L675.0,185.7 L676.6,186.5 L678.3,187.4 L679.9,188.0 L681.6,188.3 L683.3,188.2 L684.9,187.8 L686.6,187.1 L688.2,186.2 L689.9,184.9 L691.5,183.2 L693.2,181.5 L694.8,180.2 L696.5,179.5 L698.1,179.0 L699.8,178.6 L701.4,178.8 L703.1,178.4 L704.7,177.5 L706.4,176.3 L708.1,175.9 L709.7,176.0 L711.4,176.6 L713.0,177.7 L714.7,179.1 L716.3,180.5 L718.0,181.9 L719.6,182.5 L721.3,183.1 L722.9,183.0 L724.6,183.6 L726.2,185.0 L727.9,186.0 L729.5,186.9 L731.2,187.0 L732.9,187.1 L734.5,187.3 L736.2,187.5 L737.8,187.6 L739.5,188.3 L741.1,188.9 L742.8,189.0 L744.4,188.8 L746.1,188.3 L747.7,188.0 L749.4,187.7 L751.0,187.7 L752.7,187.8 L754.3,188.1 L756.0,188.8 L757.7,189.8 L759.3,191.1 L761.0,192.0 L762.6,192.5 L764.3,192.6 L765.9,192.5 L767.6,192.1 L769.2,191.8 L770.9,191.6 L772.5,190.8 L774.2,189.6 L775.8,188.6 L777.5,187.3 L779.1,186.0 L780.8,184.9 L782.5,183.8 L784.1,183.6 L785.8,184.1 L787.4,185.3 L789.1,186.7 L790.7,188.4 L792.4,189.7 L794.0,190.8 L795.7,191.5 L797.3,192.2 L799.0,192.4 L800.6,192.1 L802.3,191.5 L803.9,190.8 L805.6,190.4 L807.3,190.2 L808.9,190.4 L810.6,191.0 L812.2,191.8 L813.9,192.9 L815.5,194.0 L817.2,195.0 L818.8,195.9 L820.5,196.4 L822.1,196.6 L823.8,196.3 L825.4,195.7 L827.1,194.9 L828.7,194.4 L830.4,194.2 L832.1,194.5 L833.7,195.2 L835.4,195.2 L837.0,195.2 L838.7,195.2 L840.3,195.4 L842.0,195.7 L843.6,195.7 L845.3,195.1 L846.9,194.4 L848.6,194.1 L850.2,194.0 L851.9,193.7 L853.5,193.5 L855.2,193.2 L856.9,193.2 L858.5,193.4 L860.2,194.1 L861.8,194.6 L863.5,194.9 L865.1,195.2 L866.8,195.1 L868.4,195.2 L870.1,195.3 L871.7,195.8 L873.4,196.2 L875.0,196.5 L876.7,197.1 L878.3,197.3 L880.0,197.4" fill="none" stroke="#9b59b6" stroke-width="1.4" stroke-linejoin="round"/>
<rect x="55.0" y="273.0" width="18.0" height="3.0" fill="#3572b0" rx="1.5"/>
<text x="79.0" y="278.0" font-family="DejaVu Sans,Helvetica,Arial,sans-serif" font-size="10" fill="#888888" text-anchor="start" font-weight="normal">buffer  (71%)</text>
<rect x="265.0" y="273.0" width="18.0" height="3.0" fill="#d1663a" rx="1.5"/>
<text x="289.0" y="278.0" font-family="DejaVu Sans,Helvetica,Arial,sans-serif" font-size="10" fill="#888888" text-anchor="start" font-weight="normal">five_transistor_ota  (31%)</text>
<rect x="475.0" y="273.0" width="18.0" height="3.0" fill="#2e9e6b" rx="1.5"/>
<text x="499.0" y="278.0" font-family="DejaVu Sans,Helvetica,Arial,sans-serif" font-size="10" fill="#888888" text-anchor="start" font-weight="normal">current_mirror_ota  (61%)</text>
<rect x="685.0" y="273.0" width="18.0" height="3.0" fill="#9b59b6" rx="1.5"/>
<text x="709.0" y="278.0" font-family="DejaVu Sans,Helvetica,Arial,sans-serif" font-size="10" fill="#888888" text-anchor="start" font-weight="normal">telescopic_ota  (30%)</text>
</svg>
